<?xml version="1.0" standalone="no"?>
<!DOCTYPE svg PUBLIC "-//W3C//DTD SVG 20010904//EN"
 "http://www.w3.org/TR/2001/REC-SVG-20010904/DTD/svg10.dtd">
<svg version="1.0" xmlns="http://www.w3.org/2000/svg"
 width="792.000000pt" height="788.000000pt" viewBox="0 0 792.000000 788.000000"
 preserveAspectRatio="xMidYMid meet">

<g transform="translate(0.000000,788.000000) scale(0.100000,-0.100000)"
fill="#000000" stroke="none">
<path d="M975 7651 c-221 -27 -308 -45 -512 -107 -177 -53 -215 -109 -130
-191 82 -81 262 -151 472 -185 54 -8 191 -12 420 -12 362 0 432 5 750 60 179
32 248 29 464 -16 254 -52 463 -130 611 -226 118 -76 119 -64 -17 -200 -110
-110 -123 -128 -180 -239 -34 -66 -66 -139 -72 -162 -34 -131 -26 -119 -94
-146 -34 -14 -91 -31 -125 -37 -89 -18 -64 -33 47 -29 50 2 91 3 91 2 0 -1
-22 -44 -49 -95 -58 -108 -101 -245 -132 -412 l-22 -118 -216 -143 c-119 -78
-254 -176 -301 -217 -68 -60 -226 -223 -263 -273 -4 -5 -33 -44 -65 -85 -32
-41 -82 -110 -111 -152 -40 -58 -59 -78 -76 -78 -47 0 -219 -50 -291 -85 -68
-33 -78 -41 -96 -82 -15 -34 -18 -56 -13 -92 8 -57 12 -54 -120 -81 -243 -50
-391 -140 -492 -297 -19 -30 -40 -56 -46 -58 -10 -3 -120 -12 -172 -15 -5 0
-3 -5 5 -10 8 -5 37 -10 63 -10 78 0 87 -10 87 -88 1 -37 5 -87 11 -112 24
-114 25 -106 -17 -133 -50 -32 -155 -129 -131 -121 10 4 53 26 95 50 42 24 85
44 95 44 10 0 44 -19 75 -43 109 -82 197 -128 326 -171 125 -42 306 -44 466
-6 132 32 337 98 419 136 41 19 81 34 91 34 9 0 54 -25 100 -56 100 -67 164
-100 240 -124 102 -33 141 -34 223 -10 41 12 81 20 89 19 8 -2 43 -36 79 -75
142 -158 296 -259 465 -304 102 -27 314 -37 439 -21 50 7 130 25 178 42 49 16
90 29 92 29 8 0 38 -64 76 -160 36 -91 38 -93 38 -53 1 41 -21 123 -53 195
l-16 36 65 41 c35 23 71 41 79 41 21 0 101 -116 157 -227 55 -109 58 -82 -31
-243 -54 -96 -100 -218 -125 -335 -9 -44 -22 -85 -29 -92 -9 -10 -25 -8 -74 7
-77 24 -141 25 -213 4 -129 -38 -157 -70 -154 -172 4 -101 60 -190 227 -359
98 -100 98 -113 1 -114 -37 0 -79 -2 -93 -5 -179 -32 -255 -47 -310 -64 -89
-27 -97 -26 -120 19 -29 57 -77 91 -129 91 -36 0 -49 -6 -77 -34 -42 -42 -45
-90 -10 -151 26 -44 24 -55 -13 -75 -13 -7 -43 -30 -67 -52 -59 -54 -60 -87
-4 -124 46 -31 77 -28 169 12 42 19 57 22 60 12 2 -7 19 -28 37 -46 34 -34 77
-42 116 -21 29 15 59 91 56 140 -1 24 3 43 11 48 15 10 178 19 495 27 l245 7
53 -48 c66 -60 138 -107 235 -153 41 -19 77 -41 80 -49 3 -7 2 -34 -2 -59 l-7
-46 -58 6 c-94 11 -140 -24 -140 -105 0 -33 41 -79 70 -79 9 0 24 -6 33 -13
16 -11 15 -18 -14 -101 -35 -100 -33 -128 11 -151 61 -32 96 -13 139 72 21 43
34 52 46 33 3 -5 30 -10 59 -10 72 0 106 26 106 80 0 33 -8 48 -56 100 l-57
61 18 67 c25 96 29 99 107 74 34 -12 91 -26 125 -33 70 -13 100 -30 88 -48 -5
-9 -22 -11 -55 -6 -64 9 -89 0 -104 -37 -19 -45 -5 -103 35 -144 28 -29 32
-37 21 -52 -34 -48 -45 -137 -23 -194 31 -82 135 -55 195 50 l30 52 78 0 c65
0 81 3 98 20 42 42 17 105 -75 193 -43 41 -45 45 -34 75 6 17 16 36 23 41 8 7
126 15 290 21 152 5 307 14 344 20 110 18 379 103 476 152 32 16 61 27 64 23
3 -3 -28 -38 -69 -78 -41 -40 -91 -92 -111 -117 -21 -25 -69 -79 -107 -120
-39 -41 -71 -78 -71 -82 0 -12 -73 -58 -82 -52 -4 3 -36 8 -71 11 -105 9 -169
-33 -169 -112 0 -42 21 -69 75 -96 20 -11 37 -22 37 -24 0 -3 -13 -32 -30 -65
-48 -96 -36 -156 36 -180 70 -23 143 11 195 93 17 26 33 47 35 47 2 0 18 -9
36 -20 46 -28 103 -26 133 5 36 35 32 77 -14 159 l-39 69 81 100 c107 130 397
447 563 613 169 170 219 259 289 519 15 55 31 105 36 111 5 6 51 14 102 18 50
3 128 9 173 12 l81 6 95 -120 c53 -67 103 -131 112 -143 11 -16 19 -20 26 -13
6 6 16 81 22 168 l12 157 123 -7 c99 -5 123 -4 123 7 0 14 -177 192 -280 281
l-65 57 27 83 c15 46 32 102 38 126 6 24 14 50 17 58 3 8 -1 14 -9 14 -23 0
-170 -105 -240 -172 l-68 -65 -115 -28 c-70 -17 -119 -25 -124 -19 -5 5 -4 65
1 134 16 215 -4 628 -43 870 -6 36 -22 112 -36 170 -129 549 -377 916 -801
1191 -29 19 -54 43 -57 54 -2 11 -9 54 -15 95 -18 113 -71 262 -118 331 -63
94 -59 89 -148 179 l-64 65 -4 185 c-2 117 -10 220 -20 280 -21 111 -73 274
-114 357 -56 108 -199 316 -279 403 -18 19 -33 42 -33 51 0 11 54 41 178 96
305 138 320 140 392 40 70 -96 255 -282 360 -361 165 -124 348 -224 514 -280
136 -46 336 -59 481 -31 153 29 306 129 359 236 43 88 8 134 -121 158 -201 37
-376 73 -443 91 -41 12 -83 22 -92 25 -137 32 -393 125 -490 178 -35 19 -90
49 -123 66 -86 47 -301 182 -327 206 -85 75 -100 85 -134 85 -47 0 -246 -79
-368 -147 -56 -31 -132 -71 -171 -90 -38 -19 -99 -50 -134 -70 l-64 -36 -44
24 c-23 13 -43 27 -43 31 0 5 -4 8 -10 8 -5 0 -47 24 -92 53 -153 98 -362 178
-558 213 -112 20 -381 19 -524 -1 -59 -8 -111 -17 -115 -19 -3 -2 -22 -7 -41
-10 -59 -9 -170 -48 -273 -95 -27 -12 -55 -20 -63 -17 -8 3 -79 46 -157 94
-173 109 -342 201 -504 276 -67 31 -124 56 -128 56 -3 0 -24 8 -48 18 -197 87
-369 130 -577 148 -96 8 -224 19 -285 24 -216 21 -527 21 -690 1z m3231 -541
c289 -24 575 -123 776 -269 l37 -27 -65 -48 c-61 -45 -64 -49 -64 -89 0 -52
20 -82 59 -90 44 -9 148 11 214 40 34 15 61 22 66 17 26 -28 152 -203 208
-288 76 -114 163 -283 193 -376 31 -91 51 -267 48 -406 l-3 -119 -185 2 -185
2 214 -72 215 -73 63 -69 c127 -136 207 -320 237 -545 6 -40 11 -48 44 -65 40
-22 167 -121 252 -198 l53 -47 -14 -48 c-20 -69 -17 -161 5 -194 25 -39 110
-78 166 -78 l47 0 51 -107 51 -108 -59 -7 c-69 -8 -108 -26 -143 -68 -31 -36
-40 -91 -36 -197 6 -111 47 -193 149 -293 81 -79 152 -127 246 -165 32 -13 61
-29 65 -37 12 -23 39 -300 45 -480 7 -196 -8 -521 -31 -654 -32 -182 -99 -352
-195 -495 -24 -35 -94 -116 -154 -179 -121 -126 -328 -356 -391 -435 -22 -27
-42 -52 -45 -55 -3 -3 -50 -59 -104 -125 -89 -108 -97 -120 -80 -130 10 -5 34
-24 52 -42 29 -28 33 -38 30 -75 -3 -38 -6 -43 -30 -46 -19 -2 -38 7 -68 34
-22 20 -42 35 -43 33 -2 -2 -19 -29 -38 -59 -76 -123 -125 -154 -169 -110 -17
17 -19 28 -14 58 8 43 27 85 60 128 l23 31 -42 6 c-28 4 -49 14 -64 32 -55 63
-6 127 80 104 23 -6 54 -17 68 -25 26 -13 29 -11 130 94 127 132 371 390 420
446 l36 40 -114 33 c-256 74 -407 171 -447 288 -23 69 -20 98 11 130 52 51 80
60 183 59 85 -1 111 -7 250 -52 85 -28 156 -49 158 -47 7 7 -102 72 -173 103
-130 56 -174 67 -275 67 -85 0 -100 -3 -140 -27 -84 -49 -95 -68 -95 -161 1
-64 6 -94 24 -134 46 -104 179 -196 351 -246 95 -28 94 -29 -36 -80 -160 -64
-375 -106 -644 -127 -158 -12 -340 -13 -340 -2 0 4 15 50 34 102 40 113 71
256 85 399 11 101 15 288 7 280 -2 -2 -21 -85 -41 -184 -51 -256 -153 -643
-200 -767 -5 -12 3 -22 32 -36 74 -38 108 -110 73 -155 -25 -32 -65 -35 -112
-11 -34 18 -41 14 -57 -38 -29 -89 -151 -134 -151 -56 0 23 34 92 68 136 14
18 23 34 21 35 -2 2 -17 9 -32 17 -31 16 -67 67 -67 97 0 38 25 48 88 35 30
-6 57 -10 59 -8 8 8 85 282 125 446 34 136 42 188 46 292 4 116 0 169 -13 156
-3 -3 -16 -67 -30 -144 -53 -304 -119 -572 -141 -581 -20 -7 -294 58 -294 70
0 1 7 37 15 80 20 104 19 312 -1 418 -25 132 -33 128 -34 -16 0 -224 -26 -440
-76 -637 -28 -114 -28 -108 -9 -108 8 0 32 -17 55 -38 84 -80 32 -161 -62 -97
-40 27 -40 27 -57 -25 -13 -41 -63 -100 -84 -100 -8 0 -17 6 -20 13 -7 18 7
89 32 159 l19 56 -42 11 c-23 6 -51 20 -62 32 -19 21 -19 21 18 55 42 38 88
45 125 19 21 -15 22 -14 36 52 35 157 42 230 41 448 -1 152 -6 243 -17 295
l-15 75 -1 -75 c-4 -201 -39 -530 -58 -537 -8 -3 -44 9 -81 27 -125 62 -279
244 -317 375 -43 148 -57 360 -34 521 22 159 65 296 151 483 l38 84 31 -29 31
-29 -7 35 c-13 63 -73 206 -144 348 -39 77 -71 142 -71 146 0 4 16 27 35 50
58 71 90 151 89 226 0 41 -6 76 -16 96 l-17 31 80 27 c93 30 476 219 558 276
214 145 416 398 601 754 71 136 184 386 177 392 -2 3 -21 -21 -41 -51 -72
-109 -455 -611 -529 -695 -255 -287 -588 -483 -905 -530 -120 -19 -117 -15
-71 -90 72 -117 82 -219 32 -311 -37 -70 -148 -181 -212 -214 l-52 -26 -25 31
c-32 38 -74 42 -74 6 0 -13 7 -29 15 -36 34 -28 8 -45 -103 -66 -108 -21 -385
-21 -475 0 -159 37 -368 169 -480 302 l-26 31 141 78 c281 156 474 301 679
511 151 155 179 195 179 250 0 70 -15 89 -119 151 -171 102 -424 197 -648 242
-344 70 -752 103 -1032 82 -84 -7 -155 -11 -156 -9 -8 8 188 242 293 350 165
170 360 330 549 450 l43 28 0 -38 c1 -72 29 -196 59 -256 52 -106 172 -202
278 -222 18 -3 32 -11 30 -18 -6 -20 -89 -18 -185 4 -136 32 -136 11 -2 -53
171 -81 369 -2 586 234 166 179 230 297 295 547 28 104 31 132 31 257 0 181
-26 289 -111 457 -57 114 -58 118 -40 134 27 24 24 32 -23 80 -23 23 -52 61
-64 83 l-22 41 -51 -69 c-89 -119 -213 -222 -359 -295 -30 -15 -57 -25 -60
-22 -9 9 44 135 92 219 129 226 307 370 605 491 128 52 316 88 492 95 20 0 94
-4 165 -9z m-833 -712 c31 -43 80 -162 109 -268 20 -74 23 -107 22 -255 -1
-154 -3 -178 -28 -260 -32 -108 -97 -247 -161 -344 -47 -71 -116 -137 -190
-183 -43 -26 -146 -70 -151 -65 -2 2 1 19 6 38 13 45 13 174 -1 223 -13 46
-59 96 -88 96 -12 0 -37 -15 -57 -33 -46 -42 -67 -121 -58 -224 4 -43 3 -73
-2 -73 -16 0 -100 92 -133 145 -73 116 -96 294 -57 455 50 210 162 488 206
511 8 4 47 15 85 23 90 21 266 107 375 184 47 34 88 61 92 61 4 1 18 -14 31
-31z m-423 -1087 c21 -40 6 -121 -22 -121 -24 0 -48 34 -48 67 0 44 16 73 40
73 11 0 24 -9 30 -19z m-1733 -1253 c65 -89 163 -208 218 -266 95 -100 239
-228 298 -267 15 -10 24 -22 20 -26 -16 -15 -180 -71 -308 -104 -269 -70 -426
-73 -605 -10 -116 40 -310 130 -310 144 0 5 11 11 23 15 33 8 77 44 77 63 0
13 -9 15 -47 10 -27 -2 -56 -8 -66 -12 -13 -6 -21 2 -37 36 -20 45 -25 93 -14
147 l6 30 38 -13 c65 -23 130 -23 130 0 0 15 -110 75 -137 75 -18 0 -16 20 6
53 39 60 132 119 284 182 82 33 284 104 299 105 4 0 60 -73 125 -162z m5535
-380 c18 -15 74 -155 65 -165 -12 -11 -97 28 -132 62 -27 25 -35 40 -35 67 0
19 3 38 7 41 11 12 78 8 95 -5z m758 -1205 c-6 -16 -14 -37 -19 -48 -17 -37
-41 -105 -41 -114 0 -5 17 -22 39 -38 66 -49 132 -105 210 -181 l76 -74 -112
5 -112 6 -3 -136 -3 -135 -80 117 -80 116 -122 -5 -123 -6 -26 40 c-28 42 -74
160 -74 188 0 13 35 28 148 66 l147 49 85 88 c47 49 88 89 92 89 4 0 3 -12 -2
-27z m-3669 -392 l36 -11 6 -178 c8 -234 30 -348 94 -476 l25 -49 -124 7
c-148 8 -325 -5 -512 -39 -77 -14 -140 -26 -141 -27 -1 -2 2 -30 8 -64 6 -33
7 -72 3 -87 -6 -24 -11 -27 -46 -27 -36 0 -80 28 -80 51 0 4 -4 19 -10 34
l-10 26 -43 -29 c-72 -50 -157 -63 -171 -25 -14 35 34 73 129 103 22 7 43 14
46 16 4 2 -11 21 -32 43 -34 34 -39 44 -39 85 0 40 4 48 25 58 34 15 64 -7
107 -76 26 -42 37 -54 53 -50 11 2 171 29 355 59 184 31 341 58 348 60 8 3
-17 38 -70 97 -261 289 -331 461 -208 512 23 9 210 -1 251 -13z"/>
<path d="M4125 6674 c-16 -14 -58 -38 -92 -55 -35 -16 -63 -33 -63 -37 0 -13
79 -142 111 -183 l31 -40 -74 -77 c-125 -129 -187 -240 -232 -415 -99 -379
-36 -725 194 -1074 113 -172 226 -237 368 -212 79 14 178 47 192 65 16 18 2
18 -114 -1 -104 -16 -163 -9 -236 31 -51 28 -108 80 -98 90 4 3 17 0 30 -7 14
-8 57 -14 108 -14 79 0 91 3 171 41 213 103 387 371 429 663 19 128 7 377 -24
526 -14 66 -26 122 -26 125 0 3 41 15 90 25 50 10 90 22 90 25 0 4 -75 14
-168 23 -172 17 -232 31 -309 75 -107 59 -224 200 -303 362 -21 46 -41 84 -42
85 -2 2 -16 -8 -33 -21z m77 -394 c18 -16 66 -44 108 -61 71 -30 305 -102 376
-115 18 -3 38 -11 43 -18 18 -21 59 -201 71 -307 27 -245 -41 -500 -190 -719
-89 -129 -163 -183 -278 -203 -84 -14 -84 -14 -77 7 14 43 17 223 5 263 -29
89 -98 119 -149 64 -37 -40 -51 -93 -51 -197 l0 -88 -30 29 c-60 57 -137 213
-176 355 -26 91 -26 362 -1 474 44 200 118 352 230 473 38 40 73 73 77 73 5 0
24 -13 42 -30z m18 -1116 c19 -22 17 -101 -3 -121 -15 -15 -18 -15 -37 2 -25
23 -27 90 -3 117 20 22 27 22 43 2z"/>
<path d="M5295 5124 c-65 -17 -115 -37 -130 -54 -18 -20 -17 -20 79 -20 250 0
416 -96 416 -240 0 -33 34 -110 49 -110 14 0 21 92 12 152 -19 116 -75 199
-165 246 -43 22 -66 26 -146 28 -52 2 -104 0 -115 -2z"/>
<path d="M3404 3575 c-38 -58 25 -129 68 -75 22 27 23 49 2 78 -20 29 -50 28
-70 -3z"/>
<path d="M3563 3332 c-18 -11 -32 -57 -26 -81 8 -29 49 -38 73 -16 46 42 3
129 -47 97z"/>
<path d="M3172 3258 c-36 -44 -19 -111 26 -106 39 4 61 52 41 87 -16 29 -50
39 -67 19z"/>
<path d="M916 3784 c-19 -18 -21 -75 -4 -92 31 -31 78 0 78 52 0 52 -40 74
-74 40z"/>
</g>
</svg>
