<?xml version="1.0" standalone="no"?>
<!DOCTYPE svg PUBLIC "-//W3C//DTD SVG 20010904//EN"
 "http://www.w3.org/TR/2001/REC-SVG-20010904/DTD/svg10.dtd">
<svg version="1.0" xmlns="http://www.w3.org/2000/svg"
 width="148.000000pt" height="125.000000pt" viewBox="0 0 148.000000 125.000000"
 preserveAspectRatio="xMidYMid meet">

<g transform="translate(0.000000,125.000000) scale(0.100000,-0.100000)"
fill="#000000" stroke="none">
<path d="M120 1241 c0 -6 4 -11 9 -11 6 0 30 -17 54 -37 24 -21 53 -43 63 -50
17 -10 14 -12 -21 -13 -35 -2 -37 -3 -15 -10 32 -10 14 -12 -87 -10 -46 1 -83
-1 -83 -4 0 -8 183 -100 193 -98 5 2 6 -2 3 -7 -4 -5 -2 -12 3 -16 12 -7 41
-64 41 -81 0 -7 5 -14 12 -16 9 -3 9 -6 0 -12 -7 -4 -12 -2 -12 3 0 6 -20 11
-45 11 -24 0 -85 12 -135 26 -50 14 -94 24 -97 21 -9 -10 8 -27 27 -27 10 0
22 -4 25 -10 3 -5 20 -7 38 -4 24 3 27 2 12 -4 -16 -8 -11 -12 33 -26 34 -12
72 -36 108 -69 39 -36 65 -51 89 -54 19 -2 45 -13 57 -24 13 -11 39 -33 58
-50 33 -29 33 -30 10 -26 -14 2 -34 8 -45 12 -12 4 -5 -7 18 -28 l38 -35 -33
-26 c-19 -14 -49 -32 -68 -40 l-35 -14 53 -8 c28 -3 52 -11 52 -17 0 -6 -16
-41 -35 -78 -47 -92 -67 -179 -58 -260 l7 -64 8 50 c4 27 3 52 -2 55 -5 3 -5
12 0 20 9 13 10 13 10 0 1 -8 9 6 19 31 18 47 67 119 81 119 9 0 2 -48 -12
-77 -6 -12 -7 -29 -3 -40 5 -10 10 -43 11 -73 1 -30 7 -56 13 -58 6 -2 11 -9
11 -15 0 -15 76 -21 85 -7 10 16 25 12 25 -7 0 -9 3 -13 7 -9 4 3 12 -4 19
-16 l12 -23 13 28 13 28 13 -23 c10 -20 12 -20 13 -4 0 12 5 16 16 12 9 -3 25
1 37 9 12 8 28 15 36 15 8 0 22 7 32 16 16 15 18 11 24 -50 l7 -66 99 0 99 0
0 39 c0 22 4 51 9 64 9 23 14 24 66 21 34 -2 65 -10 75 -19 23 -20 35 -19 60
7 11 12 20 18 20 13 0 -5 9 9 21 30 17 32 21 56 20 118 -1 52 2 77 8 72 15 -9
46 -83 61 -144 12 -52 13 -53 26 -30 18 33 18 151 -1 195 -8 20 -26 49 -40 66
-40 47 -32 83 32 142 32 29 37 40 44 101 5 38 13 73 19 79 14 14 12 78 -4 101
-7 11 -16 43 -20 70 -13 102 -76 264 -118 303 -24 22 -28 22 -253 20 l-228 -3
-13 -40 -14 -40 5 43 5 42 -224 0 c-215 0 -224 -1 -229 -20 -4 -16 -13 -20
-49 -20 -23 0 -68 7 -98 16 -89 25 -100 27 -100 15z m777 -18 c-9 -9 -19 -14
-23 -11 -10 10 6 28 24 28 15 0 15 -1 -1 -17z m-650 -29 c-3 -3 -12 -4 -19 -1
-8 3 -5 6 6 6 11 1 17 -2 13 -5z m348 -4 c-4 -6 7 -23 24 -39 29 -27 44 -60
21 -46 -5 3 -10 12 -10 20 0 8 -13 22 -30 31 -22 14 -27 21 -18 31 12 15 22
17 13 3z m220 -40 c3 -6 -1 -7 -9 -4 -18 7 -21 14 -7 14 6 0 13 -4 16 -10z
m-279 -51 c3 -6 -5 -3 -20 6 -14 10 -26 19 -26 22 0 7 39 -17 46 -28z m177
-54 c9 -17 37 -52 62 -80 43 -47 47 -49 60 -31 15 20 11 60 -10 111 -19 43
-24 75 -14 75 5 0 9 -10 9 -22 0 -16 3 -19 9 -10 5 8 10 -9 14 -48 4 -37 17
-79 33 -108 22 -39 23 -44 6 -29 -23 21 -77 14 -68 -9 8 -20 3 -17 -25 12 -21
22 -21 24 -4 18 18 -7 18 -6 6 9 -7 9 -17 15 -21 12 -4 -2 -16 2 -26 11 -18
14 -18 15 4 4 31 -15 27 -3 -9 28 -34 28 -60 78 -58 114 1 22 1 22 8 -2 5 -14
15 -39 24 -55z m421 -51 c-8 -31 -19 -64 -25 -73 -9 -14 -10 -13 -5 3 6 16 24
129 26 161 1 6 5 0 10 -12 6 -15 4 -42 -6 -79z m-464 45 c0 -5 -8 -9 -17 -8
-12 0 -13 2 -5 6 10 4 10 8 0 21 -12 15 -11 16 5 3 9 -7 17 -17 17 -22z m-147
-3 c-10 -13 -20 -20 -21 -15 -5 12 17 39 30 39 5 0 1 -11 -9 -24z m735 1 c-2
-1 -20 -18 -41 -37 -26 -24 -36 -29 -31 -16 6 15 4 17 -7 11 -22 -13 -5 3 37
35 22 16 41 24 43 19 1 -6 1 -11 -1 -12z m-638 -7 c11 -8 7 -9 -15 -4 -37 8
-45 14 -19 14 10 0 26 -5 34 -10z m425 -35 c14 -13 25 -33 25 -45 0 -11 -11
-32 -25 -45 -13 -14 -33 -25 -45 -25 -11 0 -32 11 -45 25 -14 13 -25 34 -25
45 0 12 11 32 25 45 13 14 34 25 45 25 12 0 32 -11 45 -25z m-639 -47 c-15
-10 -19 -3 -10 24 7 22 7 22 14 3 4 -11 3 -23 -4 -27z m748 -35 c-31 -38 -54
-53 -54 -34 0 6 7 11 15 11 8 0 25 15 37 34 13 19 25 33 27 30 2 -2 -9 -21
-25 -41z m-625 -43 c11 -24 11 -24 -3 -6 -9 11 -16 24 -16 30 0 12 5 7 19 -24z
m538 -6 c-15 -13 -33 -24 -40 -24 -6 0 4 13 23 29 19 16 37 27 40 24 3 -3 -8
-16 -23 -29z m-196 -1 c13 -17 13 -17 -6 -3 -11 8 -22 16 -24 17 -2 2 0 3 6 3
6 0 17 -8 24 -17z m545 -17 c-9 -18 -16 -23 -21 -16 -4 6 -13 9 -21 6 -8 -3
-14 -1 -14 5 0 9 62 41 68 35 1 -2 -4 -15 -12 -30z m-408 -19 c9 -8 10 -13 2
-21 -8 -8 -15 -6 -26 9 -14 18 -16 17 -61 -34 -26 -29 -56 -67 -67 -84 -12
-17 -28 -33 -36 -35 -8 -3 -3 7 13 21 15 14 27 30 27 34 0 4 23 33 50 63 27
30 44 57 39 59 -6 2 -15 -3 -20 -10 -6 -11 -9 -9 -9 8 0 20 2 20 38 10 20 -6
43 -15 50 -20z m-548 -12 c-7 -8 -10 -22 -6 -30 3 -9 2 -13 -4 -10 -14 8 -13
28 2 43 17 17 23 15 8 -3z m400 0 c-7 -9 -15 -13 -17 -11 -7 7 7 26 19 26 6 0
6 -6 -2 -15z m225 5 c-3 -5 -12 -10 -18 -10 -7 0 -6 4 3 10 19 12 23 12 15 0z
m-591 -19 c3 -5 -1 -11 -9 -15 -15 -6 -29 7 -18 18 9 9 21 8 27 -3z m496 -53
c0 -18 -27 11 -33 35 -6 22 -6 22 14 -2 10 -13 19 -28 19 -33z m51 10 c-11
-18 -21 -29 -21 -25 0 13 33 67 38 62 3 -2 -5 -19 -17 -37z m-436 22 c-3 -5
-16 -15 -28 -21 -19 -9 -19 -8 3 10 28 23 34 26 25 11z m764 -40 c0 -11 -2
-11 -7 2 -5 12 -12 14 -21 9 -11 -7 -9 -13 8 -30 13 -13 18 -27 14 -38 -7 -16
-8 -16 -11 2 -5 28 -42 65 -63 65 -10 0 -35 -14 -56 -31 l-38 -32 38 38 c30
29 45 36 65 32 33 -6 52 1 53 22 0 12 2 12 9 -4 5 -11 9 -27 9 -35z m-269 -52
c12 -10 18 -18 12 -18 -19 0 -52 52 -51 79 1 22 2 21 9 -9 5 -19 18 -43 30
-52z m-378 23 c12 -14 11 -15 -4 -2 -10 7 -31 11 -48 9 -32 -5 -43 8 -12 14
25 6 50 -2 64 -21z m188 -53 c0 -16 -3 -19 -8 -10 -7 10 -13 8 -26 -7 -14 -15
-15 -24 -7 -40 6 -11 10 -30 10 -43 -1 -23 -1 -23 -9 2 -19 68 -22 71 -39 58
-9 -7 -12 -7 -6 -1 8 10 74 59 83 62 1 1 2 -9 2 -21z m320 -7 c0 -5 -7 -12
-16 -15 -14 -5 -15 -4 -4 9 14 17 20 19 20 6z m87 -13 c-3 -8 -6 -5 -6 6 -1
11 2 17 5 13 3 -3 4 -12 1 -19z m-636 -44 c10 -9 19 -27 18 -38 0 -15 -2 -17
-6 -6 -3 8 -14 26 -24 39 -11 13 -18 33 -18 45 l2 21 4 -21 c2 -12 13 -30 24
-40z m67 7 c-7 -9 -14 -18 -15 -20 -2 -2 -3 10 -3 29 0 28 2 31 15 20 12 -10
13 -16 3 -29z m422 4 c-7 -8 -16 -15 -21 -15 -5 0 -1 8 9 18 20 22 31 19 12
-3z m-170 1 c0 -8 -4 -18 -10 -21 -5 -3 -10 3 -10 14 0 12 5 21 10 21 6 0 10
-6 10 -14z m50 -26 c-1 -12 -4 -11 -15 4 -8 10 -12 23 -8 29 7 11 23 -12 23
-33z m70 3 c0 -12 -2 -12 -15 1 -8 8 -15 20 -15 27 0 9 4 8 15 -1 8 -7 15 -19
15 -27z m-522 23 c-2 0 -12 -9 -23 -18 -20 -16 -21 -16 -21 0 0 11 9 18 24 19
13 0 22 0 20 -1z m202 -18 c0 -16 -3 -19 -11 -11 -6 6 -8 16 -5 22 11 17 16
13 16 -11z m167 0 c-3 -8 -6 -5 -6 6 -1 11 2 17 5 13 3 -3 4 -12 1 -19z m291
-24 c1 -1 -5 -14 -14 -30 -16 -29 -16 -29 -10 -3 4 17 1 31 -9 39 -8 7 -15 17
-15 23 0 5 10 2 23 -9 12 -10 23 -19 25 -20z m-658 11 c-7 -8 -17 -15 -23 -15
-6 0 -2 7 9 15 25 19 30 19 14 0z m407 -30 c-15 -16 -19 -13 -11 9 3 9 10 13
15 10 5 -3 3 -11 -4 -19z m162 -25 c-1 -21 -2 -21 -6 -5 -3 11 -9 25 -14 31
-5 6 -6 14 -2 18 10 10 23 -16 22 -44z m-352 -22 c-2 -13 -4 -5 -4 17 -1 22 1
32 4 23 2 -10 2 -28 0 -40z m143 0 c0 -16 -4 -28 -10 -28 -5 0 -10 -15 -11
-32 l-1 -33 -8 29 c-7 23 -5 32 7 41 12 9 14 21 10 46 -5 24 -4 30 3 19 5 -8
10 -27 10 -42z m157 -38 c-3 -32 -10 -66 -16 -77 -11 -17 -12 -17 -6 3 3 11 6
52 8 91 1 47 5 66 11 56 5 -9 6 -42 3 -73z m103 58 c0 -6 -7 -5 -15 2 -8 7
-15 17 -15 22 0 6 7 5 15 -2 8 -7 15 -17 15 -22z m-667 10 c-4 -7 -8 -15 -8
-18 0 -3 -28 -40 -63 -83 -63 -79 -84 -87 -35 -13 36 54 137 162 106 114z
m131 -10 c14 -13 28 -36 31 -53 5 -26 3 -24 -14 11 -13 27 -29 45 -48 52 -16
6 -21 11 -11 11 9 1 28 -9 42 -21z m89 2 c3 -11 1 -18 -4 -14 -5 3 -9 12 -9
20 0 20 7 17 13 -6z m533 -17 c-7 -7 -26 7 -26 19 0 6 6 6 15 -2 9 -7 13 -15
11 -17z m-435 -37 c5 -6 9 -26 8 -45 l-1 -36 -12 35 c-6 19 -14 40 -19 47 -4
6 -4 19 0 30 7 17 8 17 11 -2 2 -11 8 -24 13 -29z m285 -30 c-3 -18 -13 -41
-21 -52 -12 -17 -13 -15 -4 21 6 22 13 51 16 65 9 35 16 6 9 -34z m164 31 c0
-8 -3 -8 -9 2 -7 10 -12 8 -25 -10 -9 -13 -16 -19 -16 -15 0 5 7 18 16 27 17
19 34 17 34 -4z m-521 -47 l-1 -35 -13 40 c-13 41 -9 68 6 44 5 -8 8 -30 8
-49z m212 -3 c-8 -8 -11 -2 -11 19 0 40 14 54 18 19 2 -15 -1 -32 -7 -38z
m-358 38 c-19 -13 -83 -115 -83 -131 0 -4 7 -1 15 6 19 16 19 4 0 -51 -11 -31
-13 -50 -6 -64 22 -46 20 -67 -6 -91 -29 -26 -55 -31 -70 -11 -10 13 -15 256
-5 271 10 17 21 -27 22 -94 1 -36 7 -83 13 -104 11 -37 12 -32 12 60 0 78 4
106 18 127 9 14 17 33 17 41 0 20 41 51 70 53 23 2 23 2 3 -12z m601 -1 c3 -9
6 -17 6 -18 0 -1 -9 -2 -20 -2 -20 0 -27 16 -13 29 11 11 20 8 27 -9z m83 -11
c-4 -4 4 -19 18 -33 28 -29 55 -115 54 -165 -1 -32 -3 -28 -20 63 -12 60 -62
127 -87 117 -12 -4 -13 -3 -2 10 7 8 19 15 28 15 8 0 12 -3 9 -7z m-159 -160
c-31 -33 -77 -63 -95 -63 -4 0 6 8 22 19 58 36 85 74 93 132 l7 54 3 -54 c3
-49 0 -57 -30 -88z m-404 22 l19 -30 -26 24 c-15 13 -24 28 -21 33 3 5 7 8 8
6 1 -2 10 -16 20 -33z m-107 -47 c28 -30 77 -41 53 -13 -6 8 -10 21 -8 29 4
21 76 -30 101 -72 25 -42 17 -59 -30 -67 -21 -3 -46 -10 -55 -16 -31 -16 -67
-10 -89 15 -17 20 -22 40 -24 103 -2 85 3 110 17 72 5 -13 21 -36 35 -51z
m590 -10 c-2 -13 -4 -5 -4 17 -1 22 1 32 4 23 2 -10 2 -28 0 -40z m-20 -40
c-3 -8 -6 -5 -6 6 -1 11 2 17 5 13 3 -3 4 -12 1 -19z"/>
<path d="M990 990 c0 -5 5 -10 10 -10 6 0 10 5 10 10 0 6 -4 10 -10 10 -5 0
-10 -4 -10 -10z"/>
<path d="M967 983 c-4 -3 -7 -11 -7 -17 0 -6 5 -5 12 2 6 6 9 14 7 17 -3 3 -9
2 -12 -2z"/>
<path d="M1020 981 c0 -5 5 -13 10 -16 6 -3 10 -2 10 4 0 5 -4 13 -10 16 -5 3
-10 2 -10 -4z"/>
<path d="M980 954 c-11 -12 -10 -18 3 -32 16 -15 18 -15 34 0 13 14 14 20 3
32 -7 9 -16 16 -20 16 -4 0 -13 -7 -20 -16z m36 -5 c10 -17 -13 -36 -27 -22
-12 12 -4 33 11 33 5 0 12 -5 16 -11z"/>
<path d="M940 951 c0 -5 5 -13 10 -16 6 -3 10 -2 10 4 0 5 -4 13 -10 16 -5 3
-10 2 -10 -4z"/>
<path d="M1047 953 c-4 -3 -7 -11 -7 -17 0 -6 5 -5 12 2 6 6 9 14 7 17 -3 3
-9 2 -12 -2z"/>
<path d="M514 488 l-19 -23 23 19 c21 18 27 26 19 26 -2 0 -12 -10 -23 -22z"/>
<path d="M609 433 l-24 -28 28 24 c25 23 32 31 24 31 -2 0 -14 -12 -28 -27z"/>
<path d="M1302 95 c0 -16 2 -22 5 -12 2 9 2 23 0 30 -3 6 -5 -1 -5 -18z"/>
<path d="M662 45 c0 -17 2 -22 5 -12 2 9 2 23 0 30 -3 6 -5 -1 -5 -18z"/>
<path d="M1222 30 c0 -19 2 -27 5 -17 2 9 2 25 0 35 -3 9 -5 1 -5 -18z"/>
<path d="M681 14 c0 -11 3 -14 6 -6 3 7 2 16 -1 19 -3 4 -6 -2 -5 -13z"/>
<path d="M635 10 c-3 -5 -1 -10 4 -10 6 0 11 5 11 10 0 6 -2 10 -4 10 -3 0 -8
-4 -11 -10z"/>
</g>
</svg>
