<svg id="svg" version="1.1" xmlns="http://www.w3.org/2000/svg" xmlns:xlink="http://www.w3.org/1999/xlink" width="400" height="491.2280701754386" viewBox="0, 0, 400,491.2280701754386"><g id="svgg"><path id="path0" d="M156.684 47.987 C 156.071 48.859,154.541 50.379,153.284 51.366 C 152.028 52.353,150.336 54.050,149.525 55.137 C 148.714 56.223,147.323 57.627,146.434 58.256 C 144.461 59.652,144.461 59.535,146.435 60.996 C 147.324 61.654,148.518 62.803,149.087 63.549 C 149.656 64.295,151.057 65.955,152.201 67.236 C 153.696 68.911,154.473 70.217,154.966 71.883 C 156.187 76.003,157.626 79.789,158.144 80.246 C 159.792 81.698,164.609 83.330,165.631 82.783 C 168.092 81.466,167.191 79.169,163.831 78.192 C 160.449 77.209,160.625 78.007,160.400 62.640 C 160.159 46.198,159.572 43.886,156.684 47.987 M220.096 83.479 C 219.644 84.535,219.061 86.203,218.799 87.185 C 218.090 89.845,216.000 91.723,212.591 92.764 C 211.056 93.232,209.350 93.870,208.800 94.181 L 207.800 94.746 210.111 95.773 C 211.383 96.338,212.579 96.800,212.769 96.800 C 214.092 96.800,218.653 98.647,219.785 99.640 L 221.156 100.845 221.735 99.722 C 223.835 95.646,224.198 89.543,222.608 85.036 C 221.306 81.347,221.069 81.200,220.096 83.479 M177.091 259.896 C 173.181 266.377,171.815 271.368,173.063 274.620 C 173.390 275.471,175.066 276.248,177.271 276.568 L 179.143 276.840 180.158 275.107 C 182.477 271.151,182.584 266.313,180.487 260.350 C 179.111 256.436,179.174 256.445,177.091 259.896 M148.995 272.325 C 147.898 273.201,146.370 274.763,145.600 275.796 C 144.830 276.830,143.337 278.309,142.283 279.084 C 141.228 279.860,139.739 281.313,138.975 282.315 L 137.584 284.136 137.699 301.968 L 137.813 319.800 139.229 323.600 C 140.008 325.690,141.561 328.869,142.681 330.665 C 144.557 333.673,146.800 338.528,146.800 339.580 C 146.800 339.824,152.446 345.680,159.346 352.593 L 171.892 365.163 175.638 365.446 L 179.384 365.729 181.392 367.613 C 185.450 371.420,186.379 371.422,190.559 367.637 L 192.685 365.712 196.365 365.424 C 202.663 364.932,204.233 363.765,220.700 347.342 L 234.400 333.679 234.400 330.040 C 234.400 326.462,234.422 326.379,235.742 324.979 C 237.111 323.528,237.685 322.385,240.054 316.400 L 241.400 313.000 241.295 301.200 C 241.167 286.764,240.718 285.207,236.682 285.201 C 235.570 285.200,234.967 284.728,232.586 281.994 C 231.918 281.227,230.696 280.015,229.872 279.300 L 228.372 278.000 220.930 278.000 L 213.488 278.000 206.598 284.951 C 197.825 293.802,196.545 294.420,185.041 295.352 C 174.714 296.189,170.436 294.622,167.866 289.060 C 167.058 287.311,166.012 285.754,165.238 285.148 L 163.952 284.142 165.619 282.987 C 168.925 280.696,171.289 277.603,171.026 275.913 C 170.320 271.380,169.530 271.044,159.195 270.870 L 150.989 270.733 148.995 272.325 M189.585 306.977 C 192.707 308.857,193.137 309.009,194.600 308.736 C 198.804 307.953,206.578 307.865,207.969 308.584 C 214.084 311.746,211.689 315.949,203.400 316.603 C 199.312 316.925,197.514 317.606,196.267 319.301 C 195.790 319.948,194.654 320.917,193.742 321.452 C 192.074 322.433,188.400 326.058,188.400 326.724 C 188.400 326.920,187.831 327.676,187.137 328.403 L 185.873 329.725 182.437 326.096 C 179.423 322.914,178.759 322.412,177.046 322.014 C 174.247 321.365,172.203 320.215,171.170 318.709 C 169.779 316.679,167.966 314.839,166.039 313.501 C 163.916 312.026,164.081 311.822,168.742 310.161 C 171.545 309.162,178.099 305.611,178.582 304.830 C 179.341 303.602,186.205 304.941,189.585 306.977 M161.700 392.218 C 156.095 393.728,155.200 394.813,155.200 400.107 C 155.200 404.453,155.743 405.534,158.388 406.456 C 160.714 407.267,160.873 414.400,158.565 414.400 C 157.859 414.400,155.200 416.745,155.200 417.367 C 155.200 417.634,155.836 418.155,156.613 418.526 C 158.349 419.353,160.800 418.618,160.800 417.269 C 160.800 416.092,161.705 415.581,164.473 415.193 C 165.863 414.998,168.226 414.523,169.723 414.136 C 173.632 413.128,174.763 414.403,174.134 419.111 C 173.837 421.339,173.274 421.599,168.726 421.606 C 164.570 421.613,164.236 421.728,163.612 423.368 C 162.922 425.184,164.165 426.224,167.424 426.558 C 168.846 426.704,170.443 426.988,170.973 427.190 C 172.000 427.580,175.200 424.750,175.200 423.452 C 175.200 422.540,176.239 422.348,183.000 422.006 C 186.520 421.828,190.030 421.455,190.800 421.177 C 191.570 420.899,194.306 420.566,196.880 420.436 C 202.029 420.176,202.366 420.020,202.671 417.746 C 203.015 415.181,202.129 414.709,196.286 414.350 C 193.599 414.185,190.230 413.772,188.800 413.433 C 187.226 413.060,184.302 412.813,181.389 412.808 C 176.106 412.799,174.800 412.363,174.800 410.606 C 174.800 409.614,175.721 408.422,176.529 408.369 C 176.788 408.351,179.790 408.198,183.200 408.028 C 187.225 407.827,190.031 407.489,191.200 407.065 C 192.417 406.623,194.319 406.410,197.071 406.406 C 200.989 406.400,201.173 406.360,201.971 405.346 C 204.405 402.251,200.837 399.399,196.437 400.924 C 193.749 401.855,193.150 401.848,191.600 400.871 C 189.194 399.353,186.569 398.802,181.627 398.777 C 176.313 398.751,174.432 398.266,173.697 396.729 C 172.946 395.159,170.164 393.283,167.260 392.386 C 164.313 391.476,164.443 391.479,161.700 392.218 M205.341 395.620 C 204.365 396.245,204.133 396.626,204.310 397.313 C 204.956 399.818,207.576 399.732,209.532 397.142 C 210.656 395.653,207.231 394.410,205.341 395.620 M173.593 400.191 C 174.125 400.833,174.293 404.866,173.846 406.263 C 173.430 407.561,172.645 407.662,169.483 406.826 C 167.897 406.406,165.565 405.946,164.300 405.803 C 158.382 405.133,160.262 402.271,167.800 400.478 C 171.863 399.511,172.982 399.456,173.593 400.191 M205.338 408.188 C 204.325 408.898,203.931 410.611,204.496 411.850 C 205.746 414.595,216.800 413.475,216.800 410.604 C 216.800 408.094,208.092 406.259,205.338 408.188 M205.895 421.877 C 204.476 422.247,203.765 424.443,204.795 425.276 C 206.528 426.679,208.342 425.974,208.580 423.804 C 208.680 422.887,207.534 421.487,206.811 421.646 C 206.695 421.672,206.283 421.776,205.895 421.877 M198.800 430.097 L 198.011 431.393 198.990 432.372 C 200.705 434.087,202.428 431.760,200.977 429.689 C 200.138 428.491,199.730 428.567,198.800 430.097 M177.240 436.665 L 175.600 438.306 175.600 442.167 C 175.600 446.539,175.230 447.442,172.859 448.856 C 172.056 449.334,170.815 450.273,170.100 450.941 L 168.800 452.157 168.813 459.578 C 168.831 469.214,169.346 470.000,175.642 470.000 L 179.107 470.000 180.553 468.399 L 182.000 466.798 182.000 452.583 L 182.000 438.369 180.440 436.697 L 178.881 435.025 177.240 436.665 M128.874 451.154 C 126.649 455.113,127.913 469.331,130.372 468.015 C 132.465 466.895,131.989 449.600,129.866 449.600 C 129.801 449.600,129.354 450.300,128.874 451.154 M255.196 458.100 C 254.007 460.050,254.034 466.434,255.236 467.636 L 256.072 468.472 257.036 467.566 C 258.360 466.322,258.453 460.856,257.192 458.384 C 256.216 456.471,256.191 456.467,255.196 458.100 M108.400 460.786 C 108.400 461.451,105.489 463.198,103.322 463.834 C 101.292 464.430,100.274 465.308,98.257 468.199 C 96.817 470.264,95.365 470.797,91.178 470.799 C 85.720 470.801,84.675 471.820,84.869 476.952 C 84.947 479.001,84.838 480.470,84.600 480.569 C 84.380 480.662,93.740 480.748,105.400 480.762 C 117.060 480.776,126.399 480.656,126.153 480.494 C 125.886 480.318,125.691 478.793,125.668 476.701 C 125.621 472.481,125.292 471.782,122.872 470.749 C 120.371 469.682,118.479 467.784,117.955 465.814 C 117.719 464.926,117.160 463.345,116.713 462.300 L 115.901 460.400 112.151 460.400 C 110.010 460.400,108.400 460.566,108.400 460.786 M269.240 462.395 C 268.768 463.492,268.277 464.914,268.149 465.555 C 267.785 467.373,265.670 469.613,263.348 470.640 C 260.680 471.820,260.380 472.423,260.332 476.701 C 260.309 478.793,260.114 480.318,259.847 480.494 C 259.601 480.656,290.000 480.773,327.400 480.754 C 364.800 480.735,395.040 480.603,394.600 480.460 C 393.877 480.225,393.797 479.833,393.772 476.400 C 393.737 471.687,393.108 470.210,390.898 469.654 C 390.074 469.446,387.960 468.854,386.200 468.338 L 383.000 467.400 340.644 467.296 L 298.289 467.193 296.700 465.758 C 294.248 463.542,292.776 463.082,287.200 462.791 C 283.084 462.575,281.746 462.341,279.631 461.465 C 277.521 460.590,276.440 460.400,273.580 460.400 L 270.099 460.400 269.240 462.395 M15.800 469.751 C 13.641 470.698,13.400 471.323,13.400 475.961 C 13.400 480.149,13.388 480.203,12.400 480.453 C 11.850 480.592,18.330 480.712,26.800 480.721 C 35.270 480.730,42.020 480.661,41.800 480.569 C 41.561 480.468,41.455 478.988,41.536 476.899 C 41.668 473.495,41.635 473.343,40.336 471.399 L 39.000 469.400 28.000 469.312 C 19.622 469.246,16.714 469.350,15.800 469.751 M135.845 472.750 C 135.297 473.356,135.189 474.147,135.283 476.850 L 135.400 480.200 136.900 480.324 L 138.400 480.448 138.400 476.886 C 138.400 473.943,138.273 473.209,137.669 472.662 C 136.751 471.832,136.673 471.836,135.845 472.750 M248.262 472.731 C 247.752 473.295,247.600 474.267,247.600 476.956 L 247.600 480.448 249.100 480.324 L 250.600 480.200 250.717 476.850 C 250.864 472.628,249.868 470.957,248.262 472.731 " stroke="none" fill="#e5b1ac" fill-rule="evenodd"></path><path id="path1" d="M109.214 25.574 C 108.986 25.999,108.800 28.711,108.800 31.600 C 108.800 38.418,108.789 38.400,112.814 38.400 L 116.000 38.400 116.000 41.586 C 116.000 45.389,116.219 45.600,120.174 45.600 L 122.800 45.600 122.800 48.226 C 122.800 52.179,123.002 52.388,126.914 52.465 C 130.086 52.528,130.124 52.540,128.000 52.800 C 126.790 52.948,126.026 53.099,126.303 53.135 C 127.079 53.235,126.688 59.700,125.827 61.015 C 122.844 65.568,112.864 64.376,111.817 59.341 C 111.192 56.339,108.900 55.883,104.755 57.936 L 101.800 59.400 101.945 62.600 C 102.123 66.538,102.035 66.400,104.374 66.400 C 105.433 66.400,106.862 66.513,107.550 66.650 L 108.800 66.900 108.800 70.192 L 108.800 73.485 105.747 73.715 C 102.007 73.998,102.110 73.889,101.939 77.789 L 101.800 80.979 104.543 82.381 C 110.496 85.424,116.400 84.692,119.026 80.586 C 119.930 79.173,121.171 77.931,122.581 77.029 C 124.001 76.121,125.233 74.885,126.155 73.443 C 128.848 69.234,129.983 69.174,131.836 73.141 C 135.569 81.136,141.246 79.495,141.534 70.337 C 141.744 63.675,143.824 62.571,146.591 67.655 C 147.242 68.850,148.214 69.966,148.938 70.348 C 151.495 71.697,152.258 72.907,152.552 76.079 C 153.217 83.237,154.985 85.264,161.048 85.819 C 165.455 86.222,166.245 86.596,167.792 89.015 C 169.760 92.091,171.252 92.783,173.425 91.631 C 177.030 89.718,177.286 85.907,173.934 84.066 C 171.530 82.746,170.849 81.973,170.238 79.873 C 169.549 77.502,168.419 76.236,166.383 75.551 C 163.486 74.578,163.600 75.097,163.600 62.907 L 163.600 51.938 164.717 50.869 C 165.331 50.281,166.377 49.513,167.040 49.162 C 167.830 48.745,168.611 47.757,169.300 46.302 C 170.223 44.351,170.636 43.938,172.667 42.933 C 178.232 40.178,177.211 34.837,170.923 33.811 C 168.530 33.421,168.222 32.851,168.135 28.645 L 168.060 25.000 164.730 25.000 C 161.966 25.000,161.427 25.102,161.559 25.600 C 161.647 25.930,161.685 27.464,161.644 29.008 C 161.561 32.131,162.517 33.659,165.415 35.034 C 167.325 35.940,167.844 38.556,166.400 40.000 C 165.685 40.715,165.067 40.800,160.600 40.800 C 154.916 40.800,154.338 40.541,153.821 37.755 C 153.662 36.900,152.983 35.165,152.311 33.900 L 151.089 31.600 148.318 31.600 C 144.207 31.600,144.000 31.792,144.000 35.614 L 144.000 38.800 142.270 38.800 L 140.540 38.800 140.643 40.700 C 140.700 41.745,140.758 43.712,140.773 45.071 C 140.804 47.893,141.401 48.800,143.229 48.800 C 145.786 48.800,146.985 52.135,145.074 53.930 C 143.222 55.670,140.000 54.555,140.000 52.174 C 140.000 50.413,139.347 49.713,137.439 49.427 C 135.186 49.089,133.792 48.000,133.172 46.094 C 132.424 43.793,131.818 43.154,129.522 42.242 C 127.565 41.465,127.305 41.202,126.169 38.847 C 125.034 36.494,124.771 36.227,122.804 35.437 C 119.669 34.176,119.222 33.364,119.101 28.701 L 119.000 24.802 114.314 24.801 C 110.090 24.800,109.587 24.876,109.214 25.574 M189.670 28.207 C 189.582 33.687,192.022 36.072,194.836 33.258 L 196.378 31.716 196.289 28.259 L 196.200 24.801 192.962 24.801 L 189.724 24.800 189.670 28.207 M238.753 25.100 C 238.727 25.265,238.746 25.580,238.797 25.800 C 239.795 30.163,238.380 34.109,235.398 35.280 C 232.791 36.304,232.487 36.591,231.970 38.510 C 231.468 40.377,229.634 42.400,228.444 42.400 C 227.446 42.400,224.800 44.959,224.800 45.924 C 224.800 47.105,223.655 48.338,221.794 49.162 C 217.965 50.855,217.214 52.565,219.396 54.622 C 221.081 56.211,224.753 55.474,227.611 52.972 C 227.982 52.647,229.478 52.390,231.411 52.318 L 234.600 52.200 234.966 48.900 L 235.333 45.600 237.893 45.600 C 241.772 45.600,242.000 45.378,242.000 41.602 L 242.000 38.432 245.283 38.316 L 248.566 38.200 248.914 36.600 C 249.312 34.763,249.115 26.033,248.658 25.294 C 248.319 24.746,238.838 24.561,238.753 25.100 M206.499 32.100 C 205.792 32.986,204.751 35.235,204.199 37.071 L 203.660 38.860 205.230 40.430 L 206.800 42.000 210.415 42.000 L 214.031 42.000 215.603 40.500 C 217.116 39.057,217.781 35.727,217.182 32.600 C 217.140 32.380,217.127 32.065,217.153 31.900 C 217.239 31.355,206.940 31.548,206.499 32.100 M152.349 42.538 C 154.199 44.767,152.357 48.295,149.600 47.801 C 146.995 47.334,146.409 45.130,148.369 43.169 C 149.637 41.901,151.566 41.595,152.349 42.538 M159.597 47.805 C 160.086 48.774,160.238 51.575,160.400 62.640 C 160.625 78.007,160.449 77.209,163.831 78.192 C 167.191 79.169,168.092 81.466,165.631 82.783 C 164.609 83.330,159.792 81.698,158.144 80.246 C 157.626 79.789,156.187 76.003,154.966 71.883 C 154.473 70.217,153.696 68.911,152.201 67.236 C 151.057 65.955,149.656 64.295,149.087 63.549 C 148.518 62.803,147.324 61.654,146.435 60.996 C 144.461 59.535,144.461 59.652,146.434 58.256 C 147.323 57.627,148.714 56.223,149.525 55.137 C 150.336 54.050,152.028 52.353,153.284 51.366 C 154.541 50.379,156.071 48.859,156.684 47.987 C 157.969 46.163,158.744 46.115,159.597 47.805 M231.468 53.110 C 231.764 53.298,231.932 54.587,231.925 56.606 C 231.909 60.735,231.207 62.276,228.940 63.156 C 224.300 64.956,224.103 68.516,228.561 69.987 C 231.159 70.845,231.748 71.960,231.900 76.313 C 232.174 84.157,234.392 85.554,240.500 81.729 L 242.000 80.790 242.000 74.275 C 242.000 70.053,241.844 67.604,241.558 67.318 C 241.235 66.995,241.965 66.805,244.258 66.614 C 245.986 66.471,247.669 66.316,247.997 66.272 C 248.696 66.176,249.087 64.632,249.153 61.705 C 249.211 59.118,248.107 58.261,242.555 56.587 C 239.212 55.579,235.602 53.769,235.601 53.100 C 235.600 52.935,234.565 52.803,233.300 52.806 C 232.035 52.809,231.211 52.946,231.468 53.110 M138.098 56.500 C 140.117 58.050,138.613 62.461,136.293 61.792 C 133.336 60.938,132.520 59.019,134.341 57.197 C 135.607 55.932,137.017 55.670,138.098 56.500 M219.181 76.901 C 217.162 78.262,216.406 79.924,215.873 84.168 C 215.284 88.854,215.152 88.986,210.508 89.560 C 206.136 90.101,205.520 89.865,204.532 87.278 C 203.285 84.013,201.722 83.200,196.689 83.200 C 189.462 83.200,186.044 86.882,189.919 90.495 C 191.691 92.146,192.566 92.400,196.497 92.400 C 200.875 92.400,201.219 92.577,202.734 95.609 C 204.151 98.446,205.943 99.485,210.029 99.838 C 216.220 100.375,217.817 102.215,213.760 104.140 C 209.332 106.240,208.364 109.224,211.249 111.873 C 213.930 114.336,216.860 113.226,218.587 109.093 C 219.958 105.811,223.229 105.546,224.795 108.590 C 226.109 111.145,227.757 112.251,229.019 111.424 C 231.655 109.697,231.539 107.603,228.722 106.062 C 225.637 104.374,225.607 104.247,226.414 96.300 C 227.280 87.772,226.218 79.826,223.935 77.750 C 221.819 75.827,220.994 75.679,219.181 76.901 M222.608 85.036 C 224.198 89.543,223.835 95.646,221.735 99.722 L 221.156 100.845 219.785 99.640 C 218.653 98.647,214.092 96.800,212.769 96.800 C 212.579 96.800,211.383 96.338,210.111 95.773 L 207.800 94.746 208.800 94.181 C 209.350 93.870,211.056 93.232,212.591 92.764 C 216.000 91.723,218.090 89.845,218.799 87.185 C 220.375 81.270,221.129 80.845,222.608 85.036 M24.935 91.824 C 24.846 92.058,24.824 94.308,24.886 96.824 L 25.000 101.400 59.000 101.600 C 77.700 101.710,91.920 101.890,90.600 102.000 L 88.200 102.200 87.834 105.500 L 87.467 108.800 84.907 108.800 C 81.025 108.800,80.800 109.020,80.800 112.814 L 80.800 116.000 77.624 116.000 C 73.928 116.000,74.004 115.926,73.710 119.813 L 73.485 122.800 70.916 122.800 C 66.312 122.800,66.800 118.656,66.800 157.734 C 66.800 196.368,66.405 192.800,70.680 192.800 L 73.600 192.800 73.647 223.100 C 73.673 239.765,73.810 253.940,73.950 254.600 L 74.206 255.800 77.503 255.916 L 80.800 256.032 80.800 280.572 L 80.800 305.113 77.813 305.263 C 73.641 305.474,73.800 305.121,73.800 314.187 C 73.800 323.196,73.487 322.525,77.644 322.436 C 81.635 322.351,82.004 322.166,83.908 319.287 C 84.822 317.904,86.207 316.488,87.410 315.705 C 91.138 313.280,90.800 316.421,90.800 284.210 C 90.800 251.707,91.127 254.536,87.160 252.743 C 83.792 251.221,84.000 253.295,84.000 221.234 L 84.000 192.828 82.783 191.442 C 82.105 190.669,80.820 189.811,79.883 189.504 C 76.647 188.443,76.801 190.032,76.801 157.880 C 76.800 125.609,76.556 127.874,80.226 126.136 C 82.376 125.118,84.000 123.460,84.000 122.283 C 84.000 121.294,85.281 120.085,87.586 118.898 C 89.389 117.970,89.971 117.392,90.905 115.605 C 92.387 112.769,92.634 112.500,94.051 112.189 C 95.936 111.775,98.065 109.416,97.757 108.083 C 97.367 106.398,95.530 102.400,95.145 102.400 C 93.753 102.400,95.674 100.449,98.400 99.094 C 100.118 98.241,100.723 98.195,111.704 98.083 L 123.208 97.965 124.604 96.569 C 126.295 94.878,126.304 94.753,124.833 93.106 L 123.666 91.800 74.382 91.600 C 39.828 91.460,25.049 91.527,24.935 91.824 M294.218 91.501 L 234.635 91.603 233.318 92.880 C 231.665 94.481,231.670 94.950,233.360 96.640 L 234.720 98.000 252.598 98.000 C 274.639 98.000,274.000 97.774,274.000 105.567 C 274.000 109.332,275.431 112.000,277.452 112.000 C 278.577 112.000,280.333 113.582,280.610 114.846 C 280.963 116.451,283.461 118.932,285.219 119.424 C 286.273 119.719,286.806 120.217,287.471 121.531 C 288.978 124.509,289.481 125.050,291.728 126.114 C 293.644 127.021,294.043 127.422,294.908 129.312 C 295.927 131.538,297.442 132.944,299.329 133.418 C 301.705 134.014,302.000 135.129,302.000 143.508 C 302.000 152.306,302.099 152.580,305.894 154.258 C 308.996 155.630,309.200 156.307,309.200 165.227 L 309.200 172.480 310.560 173.840 C 311.964 175.244,318.400 176.013,318.400 174.776 C 318.400 174.543,318.580 174.464,318.800 174.600 C 319.307 174.914,319.341 152.443,318.835 151.643 C 318.604 151.278,317.428 151.017,315.441 150.890 L 312.400 150.695 312.370 142.247 C 312.354 137.601,312.219 132.990,312.070 132.000 L 311.800 130.200 308.500 130.084 L 305.200 129.968 305.194 127.084 C 305.186 123.205,305.046 123.048,301.438 122.866 L 298.436 122.714 298.218 121.057 C 298.098 120.146,297.955 118.680,297.900 117.800 L 297.800 116.200 294.500 116.084 L 291.200 115.968 291.200 113.012 C 291.200 109.126,290.873 108.800,286.971 108.800 L 284.000 108.800 284.000 105.200 L 284.000 101.600 318.786 101.600 C 352.768 101.600,353.581 101.582,353.986 100.826 C 354.440 99.978,354.508 92.963,354.072 92.000 C 353.832 91.470,346.858 91.412,294.218 91.501 M128.078 106.919 C 124.887 110.212,127.954 113.772,131.386 110.759 C 133.121 109.235,133.159 108.421,131.569 106.831 C 130.021 105.283,129.656 105.292,128.078 106.919 M114.036 113.964 C 109.916 118.084,119.965 121.759,124.399 117.753 C 127.952 114.543,126.484 112.659,120.277 112.462 L 115.684 112.316 114.036 113.964 M240.340 113.966 C 238.804 115.501,238.740 115.657,239.292 116.488 C 240.487 118.288,241.869 119.005,242.989 118.406 C 245.559 117.031,245.604 114.912,243.103 113.131 L 241.977 112.329 240.340 113.966 M135.028 120.947 C 133.255 122.620,133.257 122.830,135.057 124.630 C 136.333 125.906,136.688 126.058,137.924 125.857 C 140.469 125.444,140.807 123.127,138.640 120.960 C 136.960 119.280,136.797 119.279,135.028 120.947 M219.414 120.841 C 217.090 122.882,217.675 126.000,220.381 126.000 C 223.264 126.000,224.689 122.825,222.681 120.878 C 221.070 119.317,221.149 119.318,219.414 120.841 M142.600 126.689 C 141.152 127.045,140.800 127.653,140.800 129.800 C 140.800 133.778,146.078 134.528,147.021 130.683 C 147.281 129.623,144.653 126.287,143.683 126.446 C 143.527 126.472,143.040 126.581,142.600 126.689 M212.614 127.641 C 210.133 129.820,210.326 132.489,212.996 132.922 C 215.829 133.382,217.184 132.366,217.194 129.776 C 217.206 126.631,214.958 125.583,212.614 127.641 M135.232 134.770 C 134.543 135.414,133.795 136.469,133.570 137.115 C 133.138 138.352,131.785 139.200,130.240 139.200 C 128.722 139.200,126.694 140.882,125.406 143.210 C 124.502 144.843,123.772 145.604,122.537 146.200 C 120.269 147.295,119.213 148.312,118.356 150.225 C 117.520 152.093,116.732 152.858,114.892 153.586 C 110.844 155.188,110.293 159.427,113.847 161.628 C 116.253 163.117,118.325 162.114,120.200 158.553 C 121.217 156.621,121.759 156.085,123.758 155.034 C 125.790 153.965,126.261 153.491,127.163 151.605 C 128.062 149.725,128.537 149.245,130.521 148.208 C 133.100 146.860,134.226 145.436,134.621 143.024 C 134.909 141.267,135.781 140.000,136.702 140.000 C 137.020 140.000,137.892 139.388,138.640 138.640 C 141.790 135.490,138.482 131.734,135.232 134.770 M149.200 133.878 C 147.220 134.585,147.136 136.709,149.013 138.587 L 150.427 140.000 155.164 140.000 C 160.237 140.000,160.508 139.901,161.019 137.867 C 161.259 136.909,161.071 136.502,159.770 135.169 L 158.238 133.600 154.019 133.632 C 151.698 133.649,149.530 133.760,149.200 133.878 M198.147 135.028 C 196.672 136.593,196.467 137.747,197.423 139.111 C 198.265 140.314,206.832 140.454,208.212 139.287 C 212.368 135.774,210.651 133.600,203.721 133.600 L 199.494 133.600 198.147 135.028 M218.889 134.223 C 217.507 135.191,217.694 137.147,219.319 138.722 C 222.600 141.902,226.049 138.627,222.987 135.238 C 221.393 133.474,220.333 133.211,218.889 134.223 M162.451 141.338 C 161.706 142.236,161.473 144.327,161.981 145.554 C 162.889 147.747,166.266 147.293,167.601 144.798 C 168.810 142.539,164.088 139.366,162.451 141.338 M190.948 142.228 C 189.422 143.845,189.514 144.384,191.620 146.155 C 193.054 147.362,193.819 147.154,195.296 145.156 C 197.880 141.661,193.968 139.026,190.948 142.228 M225.706 141.126 C 223.850 142.305,225.349 145.709,228.346 147.123 C 229.593 147.711,229.843 148.073,230.241 149.868 C 230.863 152.673,232.023 154.160,234.508 155.338 C 236.298 156.187,236.773 156.667,237.800 158.665 C 238.842 160.693,239.312 161.160,241.377 162.216 C 243.193 163.145,243.887 163.758,244.317 164.810 C 246.334 169.754,249.430 170.721,252.402 167.337 C 254.546 164.895,253.549 162.393,249.648 160.424 C 247.708 159.445,247.183 158.962,246.801 157.802 C 246.111 155.714,244.617 154.149,242.562 153.364 C 240.991 152.764,240.586 152.354,239.561 150.322 C 238.386 147.995,236.810 146.599,234.900 146.192 C 234.405 146.086,233.544 145.905,232.986 145.789 C 232.380 145.663,231.787 145.140,231.512 144.489 C 230.311 141.653,227.468 140.007,225.706 141.126 M156.160 148.960 C 154.463 150.657,154.463 151.117,156.160 152.761 C 157.784 154.336,158.696 154.208,160.236 152.189 C 161.941 149.953,160.863 147.600,158.134 147.600 C 157.796 147.600,156.908 148.212,156.160 148.960 M177.179 149.127 L 175.600 150.706 175.586 158.053 C 175.576 163.052,175.386 166.167,174.992 167.800 C 174.554 169.616,174.411 173.100,174.406 182.115 L 174.400 194.031 175.900 195.601 C 178.373 198.190,180.875 197.865,182.802 194.704 C 183.896 192.910,183.990 172.279,182.924 168.000 C 182.483 166.230,182.224 162.973,182.113 157.800 C 181.960 150.653,181.898 150.144,181.075 149.263 C 179.356 147.423,178.899 147.407,177.179 149.127 M205.414 148.841 C 204.636 149.524,204.000 150.389,204.000 150.763 C 204.000 151.513,206.373 154.000,207.088 154.000 C 207.814 154.000,210.000 151.605,210.000 150.811 C 210.000 150.206,207.565 147.600,207.000 147.600 C 206.905 147.600,206.192 148.159,205.414 148.841 M149.108 163.149 L 147.401 164.742 148.239 165.871 C 149.971 168.203,150.989 168.398,152.668 166.719 C 154.379 165.008,154.230 163.988,152.039 162.428 L 150.816 161.557 149.108 163.149 M212.267 163.067 C 210.522 164.811,210.522 164.809,211.818 166.348 C 213.385 168.210,214.253 168.300,215.840 166.761 C 217.541 165.113,217.536 164.762,215.787 163.013 C 214.045 161.272,214.062 161.272,212.267 163.067 M318.346 229.460 C 316.341 232.509,316.000 234.349,316.000 242.118 L 316.000 249.294 317.566 250.860 C 319.060 252.354,319.249 252.426,321.666 252.420 C 323.060 252.417,324.535 252.421,324.945 252.429 C 326.185 252.452,326.200 252.315,326.200 240.587 C 326.200 227.495,326.446 228.278,322.267 228.067 L 319.359 227.921 318.346 229.460 M177.400 245.144 C 174.896 246.691,174.617 247.324,174.400 251.941 C 174.223 255.713,174.070 256.417,173.062 258.100 L 171.924 260.000 161.105 260.000 L 150.287 260.000 149.043 261.428 C 148.360 262.213,147.010 263.743,146.045 264.828 L 144.291 266.800 140.559 266.800 C 136.337 266.800,134.815 267.634,133.177 270.845 C 132.700 271.779,131.714 272.768,130.617 273.411 C 129.636 273.986,128.286 275.080,127.617 275.842 L 126.400 277.228 126.400 294.815 L 126.400 312.402 128.984 314.999 C 131.688 317.716,131.725 317.796,132.971 323.613 C 133.599 326.547,134.397 327.895,136.317 329.268 C 137.665 330.231,139.076 333.342,139.808 336.964 L 140.529 340.528 151.064 350.986 C 156.859 356.737,161.600 361.708,161.600 362.033 C 161.600 363.056,162.729 364.286,163.886 364.522 C 164.499 364.647,165.900 365.673,167.000 366.801 L 169.000 368.853 168.049 369.631 C 165.700 371.556,161.699 370.390,161.145 367.620 C 160.601 364.904,158.304 364.416,156.160 366.560 L 154.800 367.920 154.799 375.060 C 154.797 383.388,154.640 383.855,151.069 386.138 C 147.392 388.490,147.600 387.445,147.600 403.608 L 147.600 417.838 149.100 419.271 C 150.573 420.679,152.925 421.651,156.193 422.202 C 158.482 422.589,159.093 423.018,160.044 424.913 C 161.305 427.426,162.307 428.332,165.425 429.773 C 167.740 430.843,168.462 431.414,169.425 432.939 C 170.178 434.131,170.887 434.801,171.400 434.805 C 173.443 434.823,174.000 436.257,174.000 441.499 C 174.000 446.366,173.763 446.818,170.291 448.573 C 167.434 450.017,167.200 450.857,167.201 459.647 C 167.204 470.928,167.877 471.707,177.468 471.511 L 182.923 471.400 183.761 469.800 C 184.632 468.139,185.283 443.336,184.603 437.739 C 184.320 435.416,182.618 434.289,178.549 433.731 C 175.069 433.254,174.462 431.844,176.753 429.553 L 178.306 428.000 185.864 428.000 C 194.503 428.000,194.384 427.962,196.585 431.404 C 198.222 433.963,199.183 434.648,201.635 435.005 L 203.471 435.271 204.379 433.136 C 205.493 430.518,206.145 429.748,207.529 429.414 C 210.557 428.684,211.599 428.343,211.594 428.085 C 211.587 427.742,207.162 426.000,206.299 426.000 C 205.963 426.000,205.286 425.674,204.795 425.276 C 202.983 423.809,205.822 420.853,207.788 422.159 C 208.470 422.611,208.918 422.579,210.758 421.946 C 213.873 420.874,214.504 420.976,216.172 422.822 L 217.638 424.444 216.807 425.789 L 215.976 427.134 218.632 427.418 C 221.495 427.725,223.438 428.953,224.592 431.184 C 225.215 432.390,227.564 434.800,228.116 434.800 C 228.316 434.800,229.092 434.188,229.840 433.440 L 231.200 432.080 231.200 428.084 C 231.200 423.529,231.046 423.209,227.832 421.095 C 223.798 418.440,223.572 416.640,227.000 414.463 C 227.880 413.904,229.185 412.906,229.900 412.245 L 231.200 411.043 231.200 407.000 L 231.200 402.957 229.881 401.678 C 227.649 399.515,224.800 400.297,224.800 403.072 C 224.800 403.952,222.083 407.200,221.347 407.200 C 221.140 407.200,220.091 406.307,219.016 405.216 L 217.062 403.233 218.878 401.416 C 220.229 400.066,221.004 399.600,221.898 399.600 C 223.815 399.600,224.175 398.770,224.339 393.967 C 224.590 386.622,221.160 383.913,218.139 389.069 C 216.832 391.299,214.515 393.330,213.656 392.999 C 209.600 391.436,206.833 391.355,201.400 392.643 C 198.980 393.216,196.592 393.760,196.094 393.852 C 195.227 394.011,195.215 394.068,195.794 395.189 C 196.127 395.833,196.401 396.594,196.402 396.880 C 196.411 398.853,197.271 400.400,198.359 400.400 C 202.109 400.400,203.915 402.874,201.971 405.346 C 201.173 406.360,200.989 406.400,197.071 406.406 C 194.319 406.410,192.417 406.623,191.200 407.065 C 190.031 407.489,187.225 407.827,183.200 408.028 C 179.790 408.198,176.788 408.351,176.529 408.369 C 175.721 408.422,174.800 409.614,174.800 410.606 C 174.800 412.363,176.106 412.799,181.389 412.808 C 184.302 412.813,187.226 413.060,188.800 413.433 C 190.230 413.772,193.599 414.185,196.286 414.350 C 202.129 414.709,203.015 415.181,202.671 417.746 C 202.366 420.020,202.029 420.176,196.880 420.436 C 194.306 420.566,191.570 420.899,190.800 421.177 C 190.030 421.455,186.520 421.828,183.000 422.006 C 176.239 422.348,175.200 422.540,175.200 423.452 C 175.200 424.750,172.000 427.580,170.973 427.190 C 170.443 426.988,168.846 426.704,167.424 426.558 C 164.165 426.224,162.922 425.184,163.612 423.368 C 164.236 421.728,164.570 421.613,168.726 421.606 C 173.274 421.599,173.837 421.339,174.134 419.111 C 174.763 414.403,173.632 413.128,169.723 414.136 C 168.226 414.523,165.863 414.998,164.473 415.193 C 161.705 415.581,160.800 416.092,160.800 417.269 C 160.800 418.618,158.349 419.353,156.613 418.526 C 155.836 418.155,155.200 417.634,155.200 417.367 C 155.200 416.745,157.859 414.400,158.565 414.400 C 160.873 414.400,160.714 407.267,158.388 406.456 C 154.960 405.261,153.579 397.559,156.305 394.834 C 157.440 393.699,161.375 392.000,162.869 392.000 C 163.652 392.000,163.637 391.944,162.654 391.171 C 161.241 390.060,161.327 388.993,162.960 387.360 L 164.320 386.000 168.482 386.000 L 172.643 386.000 173.874 387.300 C 174.551 388.015,175.412 389.264,175.787 390.077 C 176.951 392.596,177.696 392.842,184.240 392.870 C 190.852 392.898,190.605 392.974,189.784 391.165 C 188.438 388.202,188.108 387.770,185.931 386.115 C 184.690 385.172,183.026 383.496,182.232 382.391 C 180.409 379.853,178.989 378.993,175.655 378.406 C 169.983 377.407,168.137 375.136,170.693 372.300 C 171.645 371.244,178.041 371.299,180.164 372.382 C 183.845 374.258,188.235 374.260,191.731 372.386 C 192.884 371.768,193.984 371.600,196.874 371.600 L 200.552 371.600 202.376 369.668 C 204.805 367.095,206.462 366.183,209.709 365.633 C 213.928 364.917,213.690 365.107,226.364 352.423 C 239.169 339.608,238.844 340.032,239.456 335.359 C 239.815 332.613,240.547 331.305,243.035 328.959 L 245.200 326.919 245.200 323.113 L 245.200 319.308 248.800 315.929 L 252.400 312.551 252.400 298.192 L 252.400 283.833 250.337 282.016 C 249.203 281.017,247.628 279.495,246.837 278.634 C 246.047 277.773,244.746 276.378,243.947 275.534 L 242.494 274.000 238.705 274.000 L 234.916 274.000 232.832 271.700 C 231.685 270.435,230.193 268.815,229.515 268.100 L 228.284 266.800 221.153 266.800 L 214.023 266.800 201.634 279.178 C 187.735 293.066,188.868 292.291,182.200 292.475 C 179.134 292.559,177.850 292.428,176.700 291.913 L 175.200 291.241 175.200 287.630 C 175.200 283.527,174.943 283.884,179.598 281.517 C 184.162 279.196,185.435 274.390,184.423 263.301 C 184.127 260.056,183.776 255.321,183.642 252.780 C 183.375 247.679,182.939 246.561,180.678 245.182 C 179.104 244.222,178.897 244.220,177.400 245.144 M180.487 260.350 C 182.584 266.313,182.477 271.151,180.158 275.107 L 179.143 276.840 177.271 276.568 C 175.066 276.248,173.390 275.471,173.063 274.620 C 171.815 271.368,173.181 266.377,177.091 259.896 C 179.174 256.445,179.111 256.436,180.487 260.350 M168.622 271.674 C 172.741 273.919,171.396 278.983,165.619 282.987 L 163.952 284.142 165.238 285.148 C 166.012 285.754,167.058 287.311,167.866 289.060 C 170.436 294.622,174.714 296.189,185.041 295.352 C 196.545 294.420,197.825 293.802,206.598 284.951 L 213.488 278.000 220.930 278.000 L 228.372 278.000 229.872 279.300 C 230.696 280.015,231.918 281.227,232.586 281.994 C 234.967 284.728,235.570 285.200,236.682 285.201 C 240.718 285.207,241.167 286.764,241.295 301.200 L 241.400 313.000 240.054 316.400 C 237.685 322.385,237.111 323.528,235.742 324.979 C 234.422 326.379,234.400 326.462,234.400 330.040 L 234.400 333.679 220.700 347.342 C 204.233 363.765,202.663 364.932,196.365 365.424 L 192.685 365.712 190.559 367.637 C 186.379 371.422,185.450 371.420,181.392 367.613 L 179.384 365.729 175.638 365.446 L 171.892 365.163 159.346 352.593 C 152.446 345.680,146.800 339.824,146.800 339.580 C 146.800 338.528,144.557 333.673,142.681 330.665 C 141.561 328.869,140.008 325.690,139.229 323.600 L 137.813 319.800 137.699 301.968 L 137.584 284.136 138.975 282.315 C 139.739 281.313,141.228 279.860,142.283 279.084 C 143.337 278.309,144.830 276.830,145.600 275.796 C 146.370 274.763,147.898 273.201,148.995 272.325 L 150.989 270.733 159.195 270.870 C 165.909 270.983,167.622 271.129,168.622 271.674 M325.381 285.372 C 323.519 288.215,323.200 290.080,323.200 298.129 L 323.200 305.850 324.385 306.986 C 325.729 308.273,327.773 308.750,330.330 308.373 C 331.571 308.190,332.222 308.279,332.630 308.687 C 333.223 309.281,333.538 286.546,332.957 285.033 C 332.506 283.856,326.189 284.140,325.381 285.372 M178.582 304.830 C 178.099 305.611,171.545 309.162,168.742 310.161 C 164.081 311.822,163.916 312.026,166.039 313.501 C 167.966 314.839,169.779 316.679,171.170 318.709 C 172.203 320.215,174.247 321.365,177.046 322.014 C 178.759 322.412,179.423 322.914,182.437 326.096 L 185.873 329.725 187.137 328.403 C 187.831 327.676,188.400 326.920,188.400 326.724 C 188.400 326.058,192.074 322.433,193.742 321.452 C 194.654 320.917,195.790 319.948,196.267 319.301 C 197.514 317.606,199.312 316.925,203.400 316.603 C 211.689 315.949,214.084 311.746,207.969 308.584 C 206.578 307.865,198.804 307.953,194.600 308.736 C 193.137 309.009,192.707 308.857,189.585 306.977 C 186.205 304.941,179.341 303.602,178.582 304.830 M187.784 311.097 L 189.600 312.194 189.600 315.644 L 189.600 319.095 187.707 320.988 L 185.813 322.881 182.534 319.541 C 180.731 317.703,178.299 315.336,177.131 314.280 L 175.006 312.360 176.803 311.206 C 179.448 309.507,185.059 309.451,187.784 311.097 M207.672 311.465 C 209.240 312.884,207.645 313.600,202.918 313.600 C 199.262 313.600,195.775 312.851,196.463 312.214 C 197.932 310.852,206.371 310.288,207.672 311.465 M332.271 313.900 C 330.336 316.989,330.000 318.839,330.002 326.371 C 330.004 334.534,330.153 334.917,334.036 336.769 C 337.094 338.228,337.187 338.540,337.194 347.340 L 337.200 354.880 338.599 356.279 L 339.998 357.678 343.399 357.539 C 345.423 357.456,346.869 357.562,346.972 357.800 C 347.066 358.020,347.111 352.710,347.072 346.000 L 347.000 333.800 343.700 333.434 L 340.400 333.067 340.400 323.760 C 340.400 311.996,340.542 312.400,336.415 312.400 L 333.210 312.400 332.271 313.900 M68.600 333.557 L 67.000 333.800 66.901 342.600 C 66.847 347.440,66.937 351.210,67.101 350.977 C 67.269 350.740,68.860 350.547,70.719 350.537 C 73.931 350.521,74.082 350.478,75.419 349.182 L 76.800 347.843 76.800 343.772 C 76.800 335.119,74.790 332.616,68.600 333.557 M60.400 354.791 C 59.898 355.108,59.781 356.830,59.681 365.385 L 59.562 375.600 56.424 375.600 C 52.502 375.600,52.800 374.698,52.800 386.581 L 52.800 396.297 49.599 396.482 C 47.839 396.584,46.264 396.802,46.099 396.967 C 45.754 397.312,45.453 431.995,45.779 433.800 L 45.997 435.000 49.577 434.872 L 53.157 434.744 54.579 433.171 L 56.000 431.598 56.000 417.225 C 56.000 400.851,55.947 401.167,58.919 399.853 C 62.689 398.185,62.800 397.884,62.801 389.246 C 62.803 380.607,63.067 379.726,65.909 378.875 C 66.846 378.594,68.046 377.797,68.763 376.981 L 70.000 375.572 70.000 368.659 C 70.000 361.176,69.587 358.831,67.761 355.939 L 66.790 354.400 63.895 354.406 C 62.303 354.409,60.730 354.583,60.400 354.791 M346.374 362.837 C 344.919 364.880,344.000 368.519,344.000 372.236 L 344.000 375.600 345.620 377.220 L 347.241 378.841 350.520 378.766 C 352.407 378.723,353.925 378.502,354.094 378.246 C 354.555 377.547,354.458 363.255,353.986 362.374 C 353.200 360.906,347.502 361.253,346.374 362.837 M353.594 383.608 C 351.619 386.382,351.200 388.652,351.200 396.577 L 351.200 403.973 352.613 405.387 C 353.391 406.164,354.371 406.800,354.791 406.800 C 355.211 406.800,356.060 407.234,356.678 407.765 L 357.800 408.729 358.000 420.333 L 358.200 431.937 359.200 433.005 C 361.152 435.090,362.992 435.006,366.700 432.664 L 368.400 431.590 368.400 418.369 C 368.400 402.657,368.656 403.600,364.386 403.600 L 361.200 403.600 361.200 393.390 L 361.200 383.180 360.174 382.790 C 357.804 381.889,354.528 382.297,353.594 383.608 M208.667 395.642 C 209.830 396.360,209.956 396.579,209.532 397.142 C 208.066 399.083,206.431 399.662,205.169 398.687 C 202.601 396.703,205.832 393.889,208.667 395.642 M167.800 400.478 C 160.262 402.271,158.382 405.133,164.300 405.803 C 165.565 405.946,167.897 406.406,169.483 406.826 C 173.650 407.928,174.140 407.531,174.103 403.091 C 174.071 399.336,173.535 399.113,167.800 400.478 M215.481 408.878 C 218.216 411.530,216.326 413.143,210.396 413.218 C 204.862 413.288,203.752 412.678,204.290 409.861 C 204.814 407.124,212.935 406.411,215.481 408.878 M148.947 429.828 L 147.600 431.257 147.600 435.539 C 147.600 441.311,149.098 443.227,151.913 441.056 C 153.843 439.569,153.974 439.190,153.987 435.060 L 154.000 431.120 152.640 429.760 C 150.938 428.058,150.611 428.064,148.947 429.828 M200.977 429.689 C 202.428 431.760,200.705 434.087,198.990 432.372 L 198.011 431.393 198.800 430.097 C 199.730 428.567,200.138 428.491,200.977 429.689 M182.000 452.583 L 182.000 466.798 180.553 468.399 L 179.107 470.000 175.642 470.000 C 169.346 470.000,168.831 469.214,168.813 459.578 L 168.800 452.157 170.100 450.941 C 170.815 450.273,172.056 449.334,172.859 448.856 C 175.230 447.442,175.600 446.539,175.600 442.167 L 175.600 438.306 177.240 436.665 L 178.881 435.025 180.440 436.697 L 182.000 438.369 182.000 452.583 M127.888 443.955 C 125.585 446.505,125.073 448.941,124.820 458.552 C 124.613 466.395,124.550 466.938,123.781 467.447 C 122.487 468.305,121.200 467.198,121.200 465.227 C 121.200 459.317,119.055 451.762,116.906 450.105 L 115.654 449.139 113.262 451.569 C 111.849 453.005,110.079 454.336,108.935 454.825 C 106.715 455.773,105.054 457.220,104.415 458.764 C 103.985 459.803,103.409 460.175,99.562 461.903 C 97.775 462.706,96.400 464.537,96.400 466.114 C 96.400 467.385,94.664 467.922,90.099 468.063 C 83.272 468.274,82.002 469.628,82.001 476.700 C 82.000 480.770,82.007 480.800,82.967 480.800 C 84.918 480.800,85.008 480.616,84.869 476.947 C 84.675 471.821,85.721 470.801,91.178 470.799 C 95.365 470.797,96.817 470.264,98.257 468.199 C 100.274 465.308,101.292 464.430,103.322 463.834 C 105.489 463.198,108.400 461.451,108.400 460.786 C 108.400 460.566,110.010 460.400,112.151 460.400 L 115.901 460.400 116.713 462.300 C 117.160 463.345,117.719 464.926,117.955 465.814 C 118.479 467.784,120.371 469.682,122.872 470.749 C 125.292 471.782,125.621 472.481,125.668 476.701 C 125.709 480.381,125.899 480.783,127.600 480.794 L 128.600 480.800 128.600 476.815 C 128.600 471.933,129.241 470.747,130.992 472.392 C 131.922 473.266,132.000 473.614,132.000 476.870 L 132.000 480.400 133.700 480.401 L 135.400 480.402 135.274 476.887 C 135.161 473.751,135.237 473.291,135.974 472.624 C 137.568 471.181,138.400 472.634,138.400 476.862 L 138.400 480.400 140.000 480.400 C 140.994 480.400,141.614 480.211,141.636 479.900 C 142.132 473.088,140.966 470.030,137.467 468.971 C 134.924 468.201,134.800 467.757,134.800 459.389 C 134.800 452.060,134.841 451.658,135.715 450.359 L 136.629 449.000 140.481 448.886 L 144.332 448.772 145.772 447.178 C 146.940 445.886,147.164 445.379,146.958 444.492 C 146.494 442.493,146.065 442.400,137.370 442.400 L 129.293 442.400 127.888 443.955 M254.597 450.492 C 252.416 452.519,251.529 455.558,251.299 461.800 C 251.085 467.586,250.896 468.047,248.305 469.084 C 246.752 469.706,244.444 471.994,244.341 473.014 C 243.737 479.000,244.053 480.400,246.008 480.400 L 247.600 480.400 247.600 476.862 C 247.600 472.634,248.432 471.181,250.026 472.624 C 250.763 473.291,250.839 473.751,250.726 476.887 L 250.600 480.402 252.300 480.401 L 254.000 480.400 254.000 476.870 C 254.000 473.697,254.094 473.251,254.926 472.470 C 256.751 470.755,257.668 472.517,257.485 477.393 L 257.358 480.800 258.379 480.794 C 260.103 480.784,260.291 480.390,260.332 476.701 C 260.380 472.423,260.680 471.820,263.348 470.640 C 265.670 469.613,267.785 467.373,268.149 465.555 C 268.277 464.914,268.768 463.492,269.240 462.395 L 270.099 460.400 273.580 460.400 C 276.440 460.400,277.521 460.590,279.631 461.465 C 281.746 462.341,283.084 462.575,287.200 462.791 C 292.776 463.082,294.248 463.542,296.700 465.758 L 298.289 467.193 340.644 467.296 L 383.000 467.400 386.200 468.338 C 387.960 468.854,390.074 469.446,390.898 469.654 C 393.108 470.210,393.737 471.687,393.772 476.400 C 393.804 480.759,393.743 480.692,397.700 480.760 L 400.000 480.800 400.000 473.800 L 400.000 466.800 398.200 466.800 L 396.400 466.800 396.400 463.590 C 396.400 459.845,396.132 459.600,392.040 459.600 L 389.733 459.600 389.366 456.300 L 389.000 453.000 385.562 452.885 L 382.124 452.771 380.891 455.285 C 380.213 456.668,379.546 458.250,379.410 458.800 C 379.273 459.350,378.496 460.250,377.681 460.800 L 376.200 461.800 344.294 461.907 C 308.134 462.028,311.304 462.319,307.776 458.558 L 305.752 456.400 295.176 456.405 C 287.001 456.409,283.919 456.265,281.600 455.772 C 275.690 454.516,275.560 454.456,272.884 451.727 L 270.347 449.139 269.094 450.104 C 266.920 451.781,265.313 457.380,264.716 465.354 C 264.369 469.997,261.200 468.247,261.200 463.413 C 261.200 454.037,257.846 447.474,254.597 450.492 M130.792 451.184 C 132.285 454.110,131.959 467.166,130.372 468.015 C 127.913 469.331,126.649 455.113,128.874 451.154 C 129.937 449.262,129.810 449.260,130.792 451.184 M257.192 458.384 C 258.453 460.856,258.360 466.322,257.036 467.566 L 256.072 468.472 255.236 467.636 C 254.034 466.434,254.007 460.050,255.196 458.100 C 256.191 456.467,256.216 456.471,257.192 458.384 M11.730 459.999 C 10.975 460.305,10.822 460.780,10.578 463.576 L 10.297 466.800 7.428 466.800 C 5.731 466.800,4.364 466.996,4.080 467.280 C 3.545 467.815,3.390 479.062,3.906 479.847 C 4.299 480.445,9.179 480.933,11.523 480.609 L 13.400 480.350 13.400 476.016 C 13.400 469.125,13.430 469.112,28.400 469.280 L 39.000 469.400 40.336 471.399 C 41.635 473.343,41.668 473.496,41.536 476.895 C 41.392 480.603,41.485 480.800,43.383 480.800 C 45.292 480.800,44.532 470.398,42.415 467.534 C 41.967 466.928,41.599 466.110,41.597 465.716 C 41.595 465.322,41.009 463.830,40.294 462.400 L 38.994 459.800 25.797 459.723 C 18.539 459.680,12.208 459.804,11.730 459.999 " stroke="none" fill="#946474" fill-rule="evenodd"></path><path id="path2" d="M176.753 429.553 C 174.364 431.942,174.869 432.950,178.871 433.787 C 180.334 434.093,182.106 434.641,182.809 435.004 C 183.579 435.403,184.483 435.565,185.085 435.414 C 186.480 435.064,187.767 436.021,189.457 438.662 C 190.238 439.883,191.442 441.178,192.132 441.541 C 192.823 441.903,194.066 442.854,194.894 443.653 L 196.400 445.106 196.400 448.939 C 196.400 453.275,197.113 454.601,200.457 456.480 C 205.359 459.235,204.955 467.200,199.758 470.246 C 196.877 471.934,196.317 473.052,196.470 476.805 C 196.548 478.735,196.442 480.021,196.200 480.051 C 194.137 480.304,200.969 480.741,207.000 480.741 C 213.038 480.741,219.849 480.305,217.800 480.050 C 217.542 480.018,217.440 476.369,217.513 469.750 C 217.643 458.037,217.743 458.449,214.212 456.191 C 210.841 454.034,210.400 453.166,210.400 448.685 L 210.400 444.893 208.795 443.546 C 203.685 439.261,203.683 439.259,203.401 437.211 C 203.137 435.288,203.108 435.255,201.467 434.991 C 199.162 434.621,198.183 433.901,196.585 431.404 C 194.384 427.962,194.503 428.000,185.864 428.000 L 178.306 428.000 176.753 429.553 M170.115 435.700 C 169.661 436.195,168.918 437.342,168.463 438.250 C 167.604 439.962,165.908 441.613,163.991 442.605 C 161.925 443.673,161.200 445.462,161.200 449.493 C 161.200 453.593,160.694 454.626,158.013 455.994 C 157.181 456.418,156.022 457.333,155.438 458.028 L 154.374 459.292 154.487 469.646 C 154.560 476.334,154.458 480.018,154.200 480.050 C 151.754 480.355,159.693 480.741,168.400 480.741 C 177.104 480.741,185.053 480.354,182.600 480.051 C 182.363 480.021,182.200 478.335,182.200 475.901 L 182.200 471.800 176.800 471.600 C 167.610 471.260,167.204 470.754,167.201 459.647 C 167.200 450.857,167.434 450.017,170.291 448.573 C 173.763 446.818,174.000 446.366,174.000 441.499 C 174.000 435.354,172.493 433.104,170.115 435.700 M133.700 480.676 C 134.085 480.776,134.715 480.776,135.100 480.676 C 135.485 480.575,135.170 480.493,134.400 480.493 C 133.630 480.493,133.315 480.575,133.700 480.676 M138.500 480.676 C 138.885 480.776,139.515 480.776,139.900 480.676 C 140.285 480.575,139.970 480.493,139.200 480.493 C 138.430 480.493,138.115 480.575,138.500 480.676 M246.100 480.676 C 246.485 480.776,247.115 480.776,247.500 480.676 C 247.885 480.575,247.570 480.493,246.800 480.493 C 246.030 480.493,245.715 480.575,246.100 480.676 M250.900 480.676 C 251.285 480.776,251.915 480.776,252.300 480.676 C 252.685 480.575,252.370 480.493,251.600 480.493 C 250.830 480.493,250.515 480.575,250.900 480.676 " stroke="none" fill="#44a424" fill-rule="evenodd"></path><path id="path3" d="M119.093 25.166 C 118.983 25.588,118.971 27.433,119.067 29.266 C 119.280 33.313,119.845 34.247,122.804 35.437 C 124.771 36.227,125.034 36.494,126.169 38.847 C 127.305 41.202,127.565 41.465,129.522 42.242 C 131.818 43.154,132.424 43.793,133.172 46.094 C 133.792 48.000,135.186 49.089,137.439 49.427 C 139.347 49.713,140.000 50.413,140.000 52.174 C 140.000 54.600,143.392 55.724,145.130 53.874 C 146.927 51.962,145.742 48.800,143.229 48.800 C 141.403 48.800,140.805 47.893,140.768 45.071 C 140.751 43.712,140.703 41.790,140.663 40.800 L 140.590 39.000 138.710 38.879 L 136.831 38.757 136.715 35.279 L 136.600 31.800 133.346 31.685 L 130.092 31.569 129.815 28.238 L 129.537 24.907 127.110 24.654 C 122.166 24.137,119.314 24.319,119.093 25.166 M153.005 24.690 C 150.265 24.981,149.773 29.392,152.034 33.399 C 152.713 34.603,153.519 36.534,153.824 37.691 C 154.605 40.651,154.932 40.800,160.676 40.800 C 165.067 40.800,165.687 40.713,166.400 40.000 C 167.844 38.556,167.325 35.940,165.415 35.034 C 162.533 33.666,161.564 32.129,161.616 29.008 C 161.693 24.421,161.845 24.606,157.963 24.560 C 156.113 24.538,153.882 24.597,153.005 24.690 M168.254 24.713 C 167.826 25.405,168.226 32.308,168.728 32.914 C 169.013 33.257,170.001 33.661,170.923 33.811 C 177.211 34.837,178.232 40.178,172.667 42.933 C 170.636 43.938,170.223 44.351,169.300 46.302 C 168.611 47.757,167.830 48.745,167.040 49.162 C 166.377 49.513,165.331 50.281,164.717 50.869 L 163.600 51.938 163.600 62.907 C 163.600 75.097,163.486 74.578,166.383 75.551 C 168.419 76.236,169.549 77.502,170.238 79.873 C 170.849 81.973,171.530 82.746,173.934 84.066 C 177.286 85.907,177.030 89.718,173.425 91.631 C 171.252 92.783,169.760 92.091,167.792 89.015 C 166.245 86.596,165.455 86.222,161.048 85.819 C 154.985 85.264,153.217 83.237,152.552 76.079 C 152.258 72.907,151.495 71.697,148.938 70.348 C 148.214 69.966,147.242 68.850,146.591 67.655 C 143.824 62.571,141.744 63.675,141.534 70.337 C 141.246 79.495,135.569 81.136,131.836 73.141 C 129.983 69.174,128.848 69.234,126.155 73.443 C 125.233 74.885,124.001 76.121,122.581 77.029 C 121.171 77.931,119.930 79.173,119.026 80.586 C 116.364 84.748,110.533 85.425,104.347 82.290 L 101.400 80.796 63.136 80.798 L 24.872 80.800 24.603 84.100 C 24.254 88.395,24.456 91.386,25.100 91.450 C 25.375 91.478,47.578 91.523,74.440 91.550 L 123.280 91.600 124.640 92.960 C 126.329 94.649,126.327 94.846,124.604 96.569 L 123.208 97.965 111.704 98.083 C 100.723 98.195,100.118 98.241,98.400 99.094 C 95.674 100.449,93.753 102.400,95.145 102.400 C 95.530 102.400,97.367 106.398,97.757 108.083 C 98.065 109.416,95.936 111.775,94.051 112.189 C 92.634 112.500,92.387 112.769,90.905 115.605 C 89.971 117.392,89.389 117.970,87.586 118.898 C 85.281 120.085,84.000 121.294,84.000 122.283 C 84.000 123.460,82.376 125.118,80.226 126.136 C 76.556 127.874,76.800 125.609,76.801 157.880 C 76.801 190.032,76.647 188.443,79.883 189.504 C 80.820 189.811,82.105 190.669,82.783 191.442 L 84.000 192.828 84.000 221.234 C 84.000 253.295,83.792 251.221,87.160 252.743 C 91.127 254.536,90.800 251.707,90.800 284.210 C 90.800 316.421,91.138 313.280,87.410 315.705 C 86.207 316.488,84.822 317.904,83.908 319.287 C 82.039 322.112,81.646 322.326,78.181 322.401 C 73.925 322.492,74.068 322.536,73.889 321.100 C 73.801 320.385,73.699 322.819,73.664 326.509 C 73.602 333.018,73.629 333.261,74.584 334.709 C 76.285 337.285,76.800 339.392,76.800 343.772 L 76.800 347.843 75.419 349.182 C 74.082 350.478,73.931 350.521,70.719 350.537 C 68.857 350.547,67.271 350.740,67.106 350.977 C 66.478 351.881,66.819 354.446,67.766 355.947 C 69.587 358.831,70.000 361.181,70.000 368.659 L 70.000 375.572 68.763 376.981 C 68.046 377.797,66.846 378.594,65.909 378.875 C 63.067 379.726,62.803 380.607,62.801 389.246 C 62.800 397.884,62.689 398.185,58.919 399.853 C 55.947 401.167,56.000 400.851,56.000 417.225 L 56.000 431.598 54.579 433.171 L 53.157 434.744 49.588 434.872 C 46.679 434.976,45.988 434.889,45.856 434.400 C 45.766 434.070,45.672 438.075,45.646 443.300 L 45.600 452.800 42.200 452.800 L 38.800 452.800 38.800 456.123 C 38.800 459.124,38.936 459.715,40.199 462.223 C 40.968 463.750,41.598 465.322,41.599 465.716 C 41.599 466.110,41.967 466.928,42.415 467.534 C 43.726 469.308,44.419 472.623,44.351 476.800 L 44.289 480.600 63.145 480.704 L 82.000 480.808 82.001 476.704 C 82.002 469.628,83.271 468.274,90.099 468.063 C 94.664 467.922,96.400 467.385,96.400 466.114 C 96.400 464.537,97.775 462.706,99.562 461.903 C 103.409 460.175,103.985 459.803,104.415 458.764 C 105.054 457.220,106.715 455.773,108.935 454.825 C 110.079 454.336,111.849 453.005,113.262 451.569 L 115.654 449.139 116.906 450.105 C 119.055 451.762,121.200 459.317,121.200 465.227 C 121.200 467.198,122.487 468.305,123.781 467.447 C 124.550 466.938,124.613 466.395,124.820 458.552 C 125.073 448.941,125.585 446.505,127.888 443.955 L 129.293 442.400 137.370 442.400 C 146.065 442.400,146.494 442.493,146.958 444.492 C 147.164 445.379,146.940 445.886,145.772 447.178 L 144.332 448.772 140.481 448.886 L 136.629 449.000 135.715 450.359 C 134.841 451.658,134.800 452.060,134.800 459.389 C 134.800 467.757,134.924 468.201,137.467 468.971 C 140.449 469.873,141.879 472.567,141.763 477.064 C 141.660 481.058,141.082 480.807,150.200 480.738 C 154.320 480.707,156.369 480.574,155.400 480.400 C 154.520 480.242,153.980 480.088,154.200 480.057 C 154.458 480.021,154.560 476.331,154.487 469.646 L 154.374 459.292 155.438 458.028 C 156.022 457.333,157.181 456.418,158.013 455.994 C 160.694 454.626,161.200 453.593,161.200 449.493 C 161.200 445.462,161.925 443.673,163.991 442.605 C 165.908 441.613,167.604 439.962,168.463 438.250 C 168.918 437.342,169.626 436.232,170.037 435.783 C 171.272 434.432,168.921 431.317,165.537 429.821 C 162.427 428.446,161.398 427.545,160.161 425.114 C 159.094 423.018,158.517 422.594,156.193 422.202 C 152.925 421.651,150.573 420.679,149.100 419.271 L 147.600 417.838 147.600 403.608 C 147.600 387.445,147.392 388.490,151.069 386.138 C 154.640 383.855,154.797 383.388,154.799 375.060 L 154.800 367.920 156.160 366.560 C 158.304 364.416,160.601 364.904,161.145 367.620 C 161.699 370.390,165.700 371.556,168.049 369.631 L 169.000 368.853 167.000 366.801 C 165.900 365.673,164.499 364.647,163.886 364.522 C 162.729 364.286,161.600 363.056,161.600 362.033 C 161.600 361.708,156.859 356.737,151.064 350.986 L 140.529 340.528 139.808 336.964 C 139.076 333.342,137.665 330.231,136.317 329.268 C 134.397 327.895,133.599 326.547,132.971 323.613 C 131.725 317.796,131.688 317.716,128.984 314.999 L 126.400 312.402 126.400 294.815 L 126.400 277.228 127.617 275.842 C 128.286 275.080,129.636 273.986,130.617 273.411 C 131.714 272.768,132.700 271.779,133.177 270.845 C 134.815 267.634,136.337 266.800,140.559 266.800 L 144.291 266.800 146.045 264.828 C 147.010 263.743,148.360 262.213,149.043 261.428 L 150.287 260.000 161.105 260.000 L 171.924 260.000 173.062 258.100 C 174.071 256.415,174.223 255.715,174.400 251.926 C 174.589 247.893,174.665 247.584,175.747 246.455 C 179.780 242.248,183.241 244.998,183.642 252.727 C 183.776 255.297,184.127 260.056,184.423 263.301 C 185.435 274.390,184.162 279.196,179.598 281.517 C 174.943 283.884,175.200 283.527,175.200 287.630 L 175.200 291.241 176.700 291.913 C 177.850 292.428,179.134 292.559,182.200 292.475 C 188.868 292.291,187.735 293.066,201.634 279.178 L 214.023 266.800 221.153 266.800 L 228.284 266.800 229.515 268.100 C 230.193 268.815,231.685 270.435,232.832 271.700 L 234.916 274.000 238.742 274.000 L 242.567 274.000 244.384 276.063 C 245.383 277.197,246.905 278.772,247.766 279.563 C 248.627 280.353,250.022 281.654,250.866 282.453 L 252.400 283.906 252.400 298.228 L 252.400 312.551 248.800 315.929 L 245.200 319.308 245.200 323.113 L 245.200 326.919 243.035 328.959 C 240.547 331.305,239.815 332.613,239.456 335.359 C 238.844 340.032,239.169 339.608,226.364 352.423 C 213.690 365.107,213.928 364.917,209.709 365.633 C 206.462 366.183,204.805 367.095,202.376 369.668 L 200.552 371.600 196.874 371.600 C 193.984 371.600,192.884 371.768,191.731 372.386 C 188.235 374.260,183.845 374.258,180.164 372.382 C 178.041 371.299,171.645 371.244,170.693 372.300 C 168.137 375.136,169.983 377.407,175.655 378.406 C 178.989 378.993,180.409 379.853,182.232 382.391 C 183.026 383.496,184.690 385.172,185.931 386.115 C 188.141 387.795,188.515 388.291,189.821 391.275 C 190.970 393.897,195.089 394.354,201.819 392.605 C 206.651 391.350,209.634 391.449,213.656 392.999 C 214.515 393.330,216.832 391.299,218.139 389.069 C 221.160 383.913,224.590 386.622,224.339 393.967 C 224.175 398.770,223.815 399.600,221.898 399.600 C 221.004 399.600,220.229 400.066,218.878 401.416 L 217.062 403.233 219.016 405.216 C 220.091 406.307,221.140 407.200,221.347 407.200 C 222.083 407.200,224.800 403.952,224.800 403.072 C 224.800 400.262,227.753 399.482,229.922 401.719 C 231.186 403.024,231.200 403.081,231.200 407.041 C 231.200 411.511,230.948 411.957,227.000 414.463 C 223.572 416.640,223.798 418.440,227.832 421.095 C 231.046 423.209,231.200 423.529,231.200 428.084 L 231.200 432.080 229.840 433.440 C 229.092 434.188,228.316 434.800,228.116 434.800 C 227.564 434.800,225.215 432.390,224.592 431.184 C 223.179 428.453,217.349 426.072,215.250 427.369 C 215.032 427.504,214.076 427.778,213.127 427.977 C 210.049 428.624,206.613 429.663,206.071 430.110 C 204.801 431.157,203.168 435.712,203.432 437.472 C 203.695 439.228,203.835 439.387,208.795 443.546 L 210.400 444.893 210.400 448.685 C 210.400 453.166,210.841 454.034,214.212 456.191 C 217.743 458.449,217.643 458.037,217.513 469.750 C 217.440 476.366,217.542 480.021,217.800 480.057 C 218.020 480.088,217.480 480.242,216.600 480.400 C 215.720 480.558,221.210 480.710,228.800 480.738 C 245.715 480.801,244.225 481.137,244.144 477.278 C 244.042 472.435,245.072 470.448,248.408 469.054 C 250.899 468.014,251.087 467.544,251.299 461.800 C 251.927 444.793,261.200 446.303,261.200 463.413 C 261.200 468.247,264.369 469.997,264.716 465.354 C 265.313 457.380,266.920 451.781,269.094 450.104 L 270.347 449.139 272.884 451.727 C 275.560 454.456,275.690 454.516,281.600 455.772 C 283.919 456.265,287.001 456.409,295.176 456.405 L 305.752 456.400 307.776 458.558 C 311.304 462.319,308.134 462.028,344.294 461.907 L 376.200 461.800 377.664 460.810 C 378.615 460.166,379.280 459.311,379.562 458.370 C 379.801 457.572,380.544 455.893,381.214 454.638 C 382.329 452.548,382.422 452.080,382.316 449.078 L 382.200 445.800 378.900 445.684 L 375.600 445.568 375.597 441.284 C 375.596 438.928,375.480 435.785,375.339 434.300 L 375.084 431.600 371.734 431.600 C 368.792 431.600,368.178 431.730,366.692 432.669 C 362.992 435.006,361.151 435.089,359.200 433.005 L 358.200 431.937 358.000 420.333 L 357.800 408.729 356.678 407.765 C 356.060 407.234,355.211 406.800,354.791 406.800 C 354.371 406.800,353.391 406.164,352.613 405.387 L 351.200 403.973 351.200 396.577 C 351.200 388.677,351.621 386.380,353.567 383.647 C 354.185 382.778,354.398 381.873,354.394 380.138 C 354.391 378.852,354.256 378.001,354.094 378.246 C 353.925 378.502,352.407 378.723,350.520 378.766 L 347.241 378.841 345.620 377.220 L 344.000 375.600 344.000 372.236 C 344.000 368.543,344.918 364.882,346.347 362.875 C 346.877 362.130,347.200 361.069,347.200 360.071 C 347.200 357.405,347.169 357.385,343.395 357.539 L 339.998 357.678 338.599 356.279 L 337.200 354.880 337.194 347.340 C 337.187 338.540,337.094 338.228,334.036 336.769 C 330.153 334.917,330.004 334.534,330.002 326.371 C 330.000 318.843,330.337 316.988,332.266 313.908 C 334.263 310.718,333.291 307.936,330.330 308.373 C 327.773 308.750,325.729 308.273,324.385 306.986 L 323.200 305.850 323.200 298.140 C 323.200 289.926,323.631 287.594,325.616 285.070 C 326.369 284.113,326.397 283.401,326.336 266.937 C 326.301 257.512,326.199 250.385,326.111 251.100 C 325.958 252.327,325.429 252.688,324.200 252.402 C 323.980 252.350,322.750 252.335,321.466 252.367 C 319.252 252.423,319.052 252.346,317.566 250.860 L 316.000 249.294 316.000 242.118 C 316.000 234.408,316.355 232.447,318.264 229.607 L 319.200 228.214 319.200 201.531 C 319.200 184.173,319.060 174.761,318.800 174.600 C 318.580 174.464,318.400 174.543,318.400 174.776 C 318.400 176.013,311.964 175.244,310.560 173.840 L 309.200 172.480 309.200 165.227 C 309.200 156.307,308.996 155.630,305.894 154.258 C 302.099 152.580,302.000 152.306,302.000 143.508 C 302.000 135.129,301.705 134.014,299.329 133.418 C 297.442 132.944,295.927 131.538,294.908 129.312 C 294.043 127.422,293.644 127.021,291.728 126.114 C 289.481 125.050,288.978 124.509,287.471 121.531 C 286.806 120.217,286.273 119.719,285.219 119.424 C 283.461 118.932,280.963 116.451,280.610 114.846 C 280.333 113.582,278.577 112.000,277.452 112.000 C 275.431 112.000,274.000 109.332,274.000 105.567 C 274.000 97.774,274.639 98.000,252.598 98.000 L 234.720 98.000 233.360 96.640 C 231.671 94.951,231.665 94.481,233.316 92.881 L 234.633 91.605 294.306 91.503 C 347.066 91.412,354.000 91.470,354.149 92.000 C 354.243 92.330,354.292 89.990,354.260 86.800 L 354.200 81.000 298.094 80.899 L 241.989 80.797 240.494 81.733 C 234.393 85.554,232.174 84.155,231.900 76.313 C 231.748 71.960,231.159 70.845,228.561 69.987 C 224.103 68.516,224.300 64.956,228.940 63.156 C 231.207 62.276,231.909 60.735,231.925 56.606 C 231.932 54.587,231.764 53.298,231.468 53.110 C 230.488 52.487,228.049 52.829,226.231 53.845 C 222.387 55.993,221.017 56.151,219.406 54.632 C 217.214 52.564,217.959 50.858,221.794 49.162 C 223.655 48.338,224.800 47.105,224.800 45.924 C 224.800 44.959,227.446 42.400,228.444 42.400 C 229.634 42.400,231.468 40.377,231.970 38.510 C 232.487 36.591,232.791 36.304,235.398 35.280 C 238.245 34.162,238.768 33.259,238.804 29.400 C 238.852 24.212,239.247 24.592,233.875 24.650 C 227.698 24.717,228.000 24.525,228.000 28.387 L 228.000 31.600 222.624 31.600 C 217.736 31.600,216.365 31.832,217.073 32.539 C 218.132 33.598,217.126 39.047,215.603 40.500 L 214.031 42.000 210.415 42.000 L 206.800 42.000 205.230 40.430 L 203.660 38.860 204.199 37.071 C 204.823 34.995,205.842 32.890,206.692 31.920 C 207.167 31.378,207.230 30.603,207.007 28.074 L 206.726 24.906 204.304 24.653 C 196.360 23.823,195.959 24.030,196.265 28.808 L 196.447 31.647 194.870 33.224 C 192.920 35.174,192.830 35.173,191.022 33.172 C 189.636 31.637,189.555 31.400,189.621 29.072 C 189.660 27.712,189.671 26.105,189.646 25.500 L 189.600 24.400 179.024 24.400 C 173.207 24.400,168.360 24.541,168.254 24.713 M148.369 43.169 C 146.409 45.130,146.995 47.334,149.600 47.801 C 152.357 48.295,154.199 44.767,152.349 42.538 C 151.566 41.595,149.637 41.901,148.369 43.169 M94.980 46.109 C 94.869 46.397,94.829 49.505,94.889 53.016 L 95.000 59.400 98.095 59.517 C 100.999 59.626,101.390 59.536,104.441 58.052 C 108.909 55.877,111.178 56.274,111.817 59.341 C 112.476 62.511,114.405 63.601,119.349 63.599 C 124.771 63.596,126.402 62.059,126.646 56.719 C 126.832 52.663,127.061 52.814,120.716 52.806 L 115.631 52.800 115.516 49.300 L 115.400 45.800 105.290 45.693 C 97.258 45.608,95.139 45.694,94.980 46.109 M235.473 45.860 C 234.909 46.424,235.175 52.718,235.789 53.332 C 236.985 54.528,239.089 55.540,242.555 56.586 C 244.510 57.176,246.813 58.103,247.672 58.645 C 249.059 59.521,249.604 59.619,252.517 59.516 L 255.800 59.400 255.800 52.600 L 255.800 45.800 245.773 45.693 C 240.259 45.635,235.624 45.710,235.473 45.860 M134.341 57.197 C 132.520 59.019,133.336 60.938,136.293 61.792 C 137.799 62.226,139.350 60.339,139.015 58.478 C 138.530 55.780,136.355 55.184,134.341 57.197 M222.126 76.450 C 226.002 78.446,227.515 85.452,226.414 96.300 C 225.607 104.247,225.637 104.374,228.722 106.062 C 231.539 107.603,231.655 109.697,229.019 111.424 C 227.757 112.251,226.109 111.145,224.795 108.590 C 223.229 105.546,219.958 105.811,218.587 109.093 C 216.860 113.226,213.930 114.336,211.249 111.873 C 208.364 109.224,209.332 106.240,213.760 104.140 C 217.817 102.215,216.220 100.375,210.029 99.838 C 205.943 99.485,204.151 98.446,202.734 95.609 C 201.219 92.577,200.875 92.400,196.497 92.400 C 188.938 92.400,185.479 86.758,191.219 83.790 C 195.584 81.533,203.089 83.499,204.532 87.278 C 205.520 89.865,206.136 90.101,210.508 89.560 C 215.152 88.986,215.284 88.854,215.873 84.168 C 216.610 78.294,219.289 74.988,222.126 76.450 M131.569 106.831 C 133.159 108.421,133.121 109.235,131.386 110.759 C 127.954 113.772,124.887 110.212,128.078 106.919 C 129.656 105.292,130.021 105.283,131.569 106.831 M125.435 113.380 C 128.278 117.268,119.229 121.554,114.815 118.410 C 112.334 116.644,112.189 115.811,114.036 113.964 L 115.684 112.316 120.277 112.462 C 124.254 112.588,124.946 112.712,125.435 113.380 M244.756 114.917 C 245.862 116.985,242.817 119.566,240.932 118.159 C 238.611 116.426,238.521 115.785,240.340 113.966 L 241.977 112.329 243.103 113.131 C 243.722 113.572,244.466 114.376,244.756 114.917 M138.640 120.960 C 140.807 123.127,140.469 125.444,137.924 125.857 C 136.688 126.058,136.333 125.906,135.057 124.630 C 133.257 122.830,133.255 122.620,135.028 120.947 C 136.797 119.279,136.960 119.280,138.640 120.960 M222.681 120.878 C 224.689 122.825,223.264 126.000,220.381 126.000 C 217.675 126.000,217.090 122.882,219.414 120.841 C 221.149 119.318,221.070 119.317,222.681 120.878 M145.631 127.983 C 148.190 130.418,147.280 132.933,143.840 132.933 C 141.364 132.933,140.800 132.352,140.800 129.800 C 140.800 127.364,141.245 126.846,143.683 126.446 C 143.839 126.421,144.715 127.112,145.631 127.983 M216.700 127.524 C 217.246 128.210,217.370 131.114,216.886 131.875 C 215.859 133.490,211.784 133.336,211.146 131.658 C 209.947 128.503,214.677 124.982,216.700 127.524 M139.200 134.400 C 140.711 135.911,138.887 140.000,136.702 140.000 C 135.781 140.000,134.909 141.267,134.621 143.024 C 134.226 145.436,133.100 146.860,130.521 148.208 C 128.537 149.245,128.062 149.725,127.163 151.605 C 126.261 153.491,125.790 153.965,123.758 155.034 C 121.759 156.085,121.217 156.621,120.200 158.553 C 118.325 162.114,116.253 163.117,113.847 161.628 C 110.293 159.427,110.844 155.188,114.892 153.586 C 116.732 152.858,117.520 152.093,118.356 150.225 C 119.213 148.312,120.269 147.295,122.537 146.200 C 123.772 145.604,124.502 144.843,125.406 143.210 C 126.694 140.882,128.722 139.200,130.240 139.200 C 131.785 139.200,133.138 138.352,133.570 137.115 C 134.561 134.270,137.603 132.803,139.200 134.400 M159.770 135.169 C 161.071 136.502,161.259 136.909,161.019 137.867 C 160.508 139.901,160.237 140.000,155.164 140.000 L 150.427 140.000 149.013 138.587 C 145.727 135.301,147.363 133.681,154.019 133.632 L 158.238 133.600 159.770 135.169 M208.924 133.971 C 210.826 134.694,210.466 137.382,208.212 139.287 C 206.832 140.454,198.265 140.314,197.423 139.111 C 196.467 137.747,196.672 136.593,198.147 135.028 L 199.494 133.600 203.721 133.600 C 206.046 133.600,208.387 133.767,208.924 133.971 M222.987 135.238 C 226.049 138.627,222.600 141.902,219.319 138.722 C 217.694 137.147,217.507 135.191,218.889 134.223 C 220.333 133.211,221.393 133.474,222.987 135.238 M166.724 142.047 C 168.463 143.747,168.303 144.760,166.042 146.370 C 163.639 148.081,161.141 146.197,161.753 143.136 C 162.298 140.408,164.544 139.916,166.724 142.047 M195.512 141.300 C 196.695 142.742,195.684 145.685,193.626 146.786 C 192.803 147.227,190.807 145.908,189.992 144.385 C 188.980 142.493,194.130 139.615,195.512 141.300 M229.847 142.100 C 230.509 142.815,231.258 143.890,231.512 144.489 C 231.787 145.140,232.380 145.663,232.986 145.789 C 233.544 145.905,234.405 146.086,234.900 146.192 C 236.810 146.599,238.386 147.995,239.561 150.322 C 240.586 152.354,240.991 152.764,242.562 153.364 C 244.617 154.149,246.111 155.714,246.801 157.802 C 247.183 158.962,247.708 159.445,249.648 160.424 C 253.549 162.393,254.546 164.895,252.402 167.337 C 249.430 170.721,246.334 169.754,244.317 164.810 C 243.887 163.758,243.193 163.145,241.377 162.216 C 239.312 161.160,238.842 160.693,237.800 158.665 C 236.773 156.667,236.298 156.187,234.508 155.338 C 232.023 154.160,230.863 152.673,230.241 149.868 C 229.843 148.073,229.593 147.711,228.346 147.123 C 227.555 146.750,226.419 145.862,225.819 145.150 C 223.075 141.889,226.941 138.962,229.847 142.100 M159.737 147.976 C 161.294 148.568,161.523 150.501,160.236 152.189 C 158.696 154.208,157.784 154.336,156.160 152.761 C 154.463 151.117,154.463 150.657,156.160 148.960 C 157.599 147.521,158.145 147.371,159.737 147.976 M181.075 149.263 C 181.898 150.144,181.960 150.653,182.113 157.800 C 182.224 162.973,182.483 166.230,182.924 168.000 C 183.990 172.279,183.896 192.910,182.802 194.704 C 180.875 197.865,178.373 198.190,175.900 195.601 L 174.400 194.031 174.406 182.115 C 174.411 173.100,174.554 169.616,174.992 167.800 C 175.386 166.167,175.576 163.052,175.586 158.053 L 175.600 150.706 177.179 149.127 C 178.899 147.407,179.356 147.423,181.075 149.263 M208.586 148.841 C 209.364 149.524,210.000 150.410,210.000 150.811 C 210.000 151.605,207.814 154.000,207.088 154.000 C 206.373 154.000,204.000 151.513,204.000 150.763 C 204.000 150.192,206.459 147.600,207.000 147.600 C 207.095 147.600,207.808 148.159,208.586 148.841 M153.704 164.269 C 154.097 165.132,153.982 165.405,152.668 166.719 C 150.989 168.398,149.971 168.203,148.239 165.871 L 147.401 164.742 149.108 163.149 L 150.816 161.557 152.039 162.428 C 152.712 162.907,153.461 163.736,153.704 164.269 M215.787 163.013 C 217.536 164.762,217.541 165.113,215.840 166.761 C 214.253 168.300,213.385 168.210,211.818 166.348 C 210.522 164.809,210.522 164.811,212.267 163.067 C 214.062 161.272,214.045 161.272,215.787 163.013 M176.803 311.206 L 175.006 312.360 177.131 314.280 C 178.299 315.336,180.731 317.703,182.534 319.541 L 185.813 322.881 187.707 320.988 L 189.600 319.095 189.600 315.644 L 189.600 312.194 187.784 311.097 C 185.059 309.451,179.448 309.507,176.803 311.206 M198.400 311.462 C 196.093 312.262,196.111 312.230,197.543 312.971 C 199.421 313.942,206.836 313.865,207.741 312.865 C 209.480 310.944,202.791 309.940,198.400 311.462 M152.640 429.760 L 154.000 431.120 153.987 435.060 C 153.974 439.190,153.843 439.569,151.913 441.056 C 149.098 443.227,147.600 441.311,147.600 435.539 L 147.600 431.257 148.947 429.828 C 150.611 428.064,150.938 428.058,152.640 429.760 M185.000 435.431 C 184.740 435.541,184.647 440.884,184.734 450.700 C 184.876 466.765,184.681 469.147,183.079 470.878 C 182.121 471.914,181.703 479.931,182.600 480.057 C 182.820 480.088,182.280 480.242,181.400 480.400 C 180.520 480.558,184.120 480.686,189.400 480.686 C 194.680 480.686,198.280 480.558,197.400 480.400 C 196.520 480.242,195.980 480.088,196.200 480.058 C 196.441 480.024,196.548 478.733,196.470 476.805 C 196.317 473.052,196.877 471.934,199.758 470.246 C 204.955 467.200,205.359 459.235,200.457 456.480 C 197.113 454.601,196.400 453.275,196.400 448.939 L 196.400 445.106 194.894 443.653 C 194.066 442.854,192.823 441.903,192.132 441.541 C 191.442 441.178,190.245 439.894,189.474 438.688 C 187.652 435.840,186.325 434.874,185.000 435.431 M129.149 472.260 C 128.482 473.063,128.221 480.242,128.845 480.628 C 129.069 480.766,129.870 480.763,130.626 480.622 L 132.000 480.364 132.000 476.852 C 132.000 473.698,131.906 473.251,131.074 472.470 C 129.963 471.426,129.853 471.414,129.149 472.260 M254.870 472.526 C 253.484 474.001,253.560 480.274,254.968 480.628 C 257.144 481.174,257.380 480.861,257.494 477.275 C 257.647 472.463,256.641 470.641,254.870 472.526 " stroke="none" fill="#642c2c" fill-rule="evenodd"></path><path id="path4" d="M114.112 24.695 C 115.164 24.777,116.784 24.776,117.712 24.692 C 118.640 24.608,117.780 24.541,115.800 24.542 C 113.820 24.543,113.060 24.612,114.112 24.695 M162.900 24.694 C 163.945 24.776,165.655 24.776,166.700 24.694 C 167.745 24.612,166.890 24.544,164.800 24.544 C 162.710 24.544,161.855 24.612,162.900 24.694 M191.312 24.695 C 192.364 24.777,193.984 24.776,194.912 24.692 C 195.840 24.608,194.980 24.541,193.000 24.542 C 191.020 24.543,190.260 24.612,191.312 24.695 M240.100 24.694 C 241.145 24.776,242.855 24.776,243.900 24.694 C 244.945 24.612,244.090 24.544,242.000 24.544 C 239.910 24.544,239.055 24.612,240.100 24.694 M234.893 50.400 C 234.893 51.170,234.975 51.485,235.076 51.100 C 235.176 50.715,235.176 50.085,235.076 49.700 C 234.975 49.315,234.893 49.630,234.893 50.400 M127.305 52.687 C 127.914 52.779,128.814 52.777,129.305 52.682 C 129.797 52.587,129.300 52.511,128.200 52.514 C 127.100 52.517,126.697 52.595,127.305 52.687 M228.905 52.687 C 229.514 52.779,230.414 52.777,230.905 52.682 C 231.397 52.587,230.900 52.511,229.800 52.514 C 228.700 52.517,228.297 52.595,228.905 52.687 M101.714 63.000 C 101.717 64.100,101.795 64.503,101.887 63.895 C 101.979 63.286,101.977 62.386,101.882 61.895 C 101.787 61.403,101.711 61.900,101.714 63.000 M104.505 66.687 C 105.114 66.779,106.014 66.777,106.505 66.682 C 106.997 66.587,106.500 66.511,105.400 66.514 C 104.300 66.517,103.897 66.595,104.505 66.687 M244.700 66.682 C 245.195 66.778,246.005 66.778,246.500 66.682 C 246.995 66.587,246.590 66.509,245.600 66.509 C 244.610 66.509,244.205 66.587,244.700 66.682 M101.709 77.200 C 101.709 78.190,101.787 78.595,101.882 78.100 C 101.978 77.605,101.978 76.795,101.882 76.300 C 101.787 75.805,101.709 76.210,101.709 77.200 M24.544 94.800 C 24.544 96.890,24.612 97.745,24.694 96.700 C 24.776 95.655,24.776 93.945,24.694 92.900 C 24.612 91.855,24.544 92.710,24.544 94.800 M90.300 101.882 C 90.795 101.978,91.605 101.978,92.100 101.882 C 92.595 101.787,92.190 101.709,91.200 101.709 C 90.210 101.709,89.805 101.787,90.300 101.882 M87.693 104.000 C 87.693 104.770,87.775 105.085,87.876 104.700 C 87.976 104.315,87.976 103.685,87.876 103.300 C 87.775 102.915,87.693 103.230,87.693 104.000 M78.105 115.887 C 78.714 115.979,79.614 115.977,80.105 115.882 C 80.597 115.787,80.100 115.711,79.000 115.714 C 77.900 115.717,77.497 115.795,78.105 115.887 M292.105 115.887 C 292.714 115.979,293.614 115.977,294.105 115.882 C 294.597 115.787,294.100 115.711,293.000 115.714 C 291.900 115.717,291.497 115.795,292.105 115.887 M298.114 119.400 C 298.117 120.500,298.195 120.903,298.287 120.295 C 298.379 119.686,298.377 118.786,298.282 118.295 C 298.187 117.803,298.111 118.300,298.114 119.400 M312.093 132.000 C 312.093 132.770,312.175 133.085,312.276 132.700 C 312.376 132.315,312.376 131.685,312.276 131.300 C 312.175 130.915,312.093 131.230,312.093 132.000 M325.100 228.412 C 325.706 228.656,326.018 229.137,326.054 229.887 C 326.102 230.863,326.131 230.887,326.285 230.078 C 326.491 229.002,325.783 227.989,324.851 228.025 C 324.410 228.043,324.491 228.168,325.100 228.412 M74.018 305.778 C 73.754 306.096,73.618 306.771,73.715 307.278 C 73.869 308.087,73.898 308.063,73.946 307.087 C 73.982 306.337,74.294 305.856,74.900 305.612 C 75.509 305.368,75.590 305.243,75.149 305.225 C 74.791 305.211,74.282 305.460,74.018 305.778 M344.500 333.476 C 344.885 333.576,345.515 333.576,345.900 333.476 C 346.285 333.375,345.970 333.293,345.200 333.293 C 344.430 333.293,344.115 333.375,344.500 333.476 M348.105 361.487 C 348.714 361.579,349.614 361.577,350.105 361.482 C 350.597 361.387,350.100 361.311,349.000 361.314 C 347.900 361.317,347.497 361.395,348.105 361.487 M162.960 387.360 C 161.001 389.319,161.501 391.600,163.889 391.600 C 166.973 391.600,172.667 394.577,173.697 396.729 C 174.432 398.266,176.313 398.751,181.627 398.777 C 186.663 398.802,189.385 399.387,191.667 400.936 C 192.947 401.804,193.195 401.839,194.932 401.398 C 197.349 400.784,197.315 400.837,196.783 398.549 C 195.539 393.195,195.298 393.072,185.683 392.916 C 177.503 392.782,176.965 392.628,175.787 390.077 C 175.412 389.264,174.551 388.015,173.874 387.300 L 172.643 386.000 168.482 386.000 L 164.320 386.000 162.960 387.360 M210.800 421.886 C 208.604 422.647,208.718 422.549,208.580 423.806 C 208.517 424.374,208.238 425.113,207.959 425.450 C 207.325 426.214,207.752 426.527,210.722 427.480 C 213.412 428.342,215.610 427.713,216.850 425.726 L 217.645 424.452 216.176 422.826 C 214.533 421.007,213.740 420.869,210.800 421.886 M389.293 454.800 C 389.293 455.570,389.375 455.885,389.476 455.500 C 389.576 455.115,389.576 454.485,389.476 454.100 C 389.375 453.715,389.293 454.030,389.293 454.800 M10.493 462.000 C 10.493 462.770,10.575 463.085,10.676 462.700 C 10.776 462.315,10.776 461.685,10.676 461.300 C 10.575 460.915,10.493 461.230,10.493 462.000 M5.300 480.676 C 5.685 480.776,6.315 480.776,6.700 480.676 C 7.085 480.575,6.770 480.493,6.000 480.493 C 5.230 480.493,4.915 480.575,5.300 480.676 M131.300 480.676 C 131.685 480.776,132.315 480.776,132.700 480.676 C 133.085 480.575,132.770 480.493,132.000 480.493 C 131.230 480.493,130.915 480.575,131.300 480.676 M136.100 480.676 C 136.485 480.776,137.115 480.776,137.500 480.676 C 137.885 480.575,137.570 480.493,136.800 480.493 C 136.030 480.493,135.715 480.575,136.100 480.676 M140.900 480.676 C 141.285 480.776,141.915 480.776,142.300 480.676 C 142.685 480.575,142.370 480.493,141.600 480.493 C 140.830 480.493,140.515 480.575,140.900 480.676 M243.700 480.676 C 244.085 480.776,244.715 480.776,245.100 480.676 C 245.485 480.575,245.170 480.493,244.400 480.493 C 243.630 480.493,243.315 480.575,243.700 480.676 M248.500 480.676 C 248.885 480.776,249.515 480.776,249.900 480.676 C 250.285 480.575,249.970 480.493,249.200 480.493 C 248.430 480.493,248.115 480.575,248.500 480.676 " stroke="none" fill="#e42424" fill-rule="evenodd"></path></g></svg>